<?xml version="1.0" encoding="utf-8"?>
<!-- Generator: Adobe Illustrator 15.0.0, SVG Export Plug-In . SVG Version: 6.00 Build 0)  -->
<!DOCTYPE svg PUBLIC "-//W3C//DTD SVG 1.1//EN" "http://www.w3.org/Graphics/SVG/1.1/DTD/svg11.dtd">
<svg version="1.1" id="Layer_1" xmlns="http://www.w3.org/2000/svg" xmlns:xlink="http://www.w3.org/1999/xlink" x="0px" y="0px"
	 width="317px" height="373.88px" viewBox="0 0 317 373.88" enable-background="new 0 0 317 373.88" xml:space="preserve">
<g>
	<path fill="#DA1F26" d="M156.953,196h2.457c21.623-1,39.108-8.049,51.968-22.522c28.917-32.604,24.258-89.091,23.632-95.416
		l-0.022-0.345c-1.879-40.049-20.496-58.682-35.784-67.431C187.611,3.63,174.115,0,159.08,0h-1.299
		c-8.292,0-24.522,1.102-40.07,9.955c-15.512,8.789-34.383,27.594-36.256,67.833l-0.022,0.254
		c-0.623,6.33-5.253,62.895,23.639,95.465C117.855,187.983,135.309,195,156.953,196z M90.825,79.14
		c0.014-0.392,0.058-0.724,0.098-0.965c1.29-26.633,10.52-46.022,27.435-57.632c13.611-9.342,28.909-11.303,39.346-11.303
		l1.09,0.001c11.183,0.249,27.376,2.667,41.011,12.779c15.803,11.719,24.429,30.649,25.641,56.264l0.04,0.284
		c0.078,0.557,6.098,57.607-21.219,88.358C193.004,179.623,178.077,186,158.637,186h-0.856c-19.53,0-34.436-6.384-45.625-19.094
		C86.419,138.001,90.202,85.787,90.825,79.14z"/>
	<path fill="#DA1F26" d="M317,300.552v-0.351c0-0.188-0.225-0.377-0.236-0.571c-0.027-0.427-0.155-0.865-0.159-1.327
		c-0.479-15.918-1.565-48.686-32.228-59.142l-0.145-0.033c-0.135-0.038-0.282-0.077-0.41-0.117
		c-36.133-9.254-65.958-29.542-68.209-31.108l-0.006,0.002c-0.806-0.568-1.749-0.869-2.726-0.869c-1.566,0-3.045,0.77-3.952,2.059
		c-1.518,2.153-0.985,5.151,1.188,6.684c1.291,0.906,32.312,22.485,71.079,32.451l0.52,0.159
		c23.983,8.546,24.814,35.688,25.261,50.27l0.003,0.184c0,0.524,0,0.978,0.033,1.236l0.049,0.698
		c0.084,7.75-0.442,19.18-1.796,25.96l-0.537,2.689l-2.385,1.354c-13.876,7.878-65.271,33.583-144.005,33.583
		c-78.343,0-130.076-25.759-144.065-33.653l-2.395-1.352l-0.54-2.696c-1.384-6.913-1.958-18.526-1.797-25.977
		c0.002-0.402,0.023-0.805,0.048-1.218c0.013-0.226,0.03-0.459,0.03-0.707l0.003-0.186c0.45-14.582,1.288-41.726,25.264-50.268
		l0.521-0.159c34.45-8.853,62.927-26.955,70.834-32.292l0.278-0.186c1.039-0.745,1.731-1.842,1.953-3.092
		c0.221-1.255-0.061-2.519-0.794-3.559c-0.911-1.291-2.39-2.063-3.957-2.063c-0.976,0-1.918,0.301-2.724,0.868l-0.002-0.003
		c-2.576,1.79-32.433,22.027-68.377,31.156c-0.16,0.039-0.237,0.068-0.314,0.094l-0.113,0.02C1.528,249.651,1,282.426,0,298.18
		v0.031c0,0.705,0,1.433,0,2.234v0.034c0,8.124,0.409,25.666,3.671,33.912c0.357,0.932,0.962,1.657,1.76,2.154l0.163,0.104
		c0.557,0.372,56.821,37.23,152.827,37.23c91.615,0,146.918-33.477,152.923-37.294c0.813-0.529,1.689-1.318,2.007-2.142
		C316.419,326.281,317,308.701,317,300.552z"/>
</g>
</svg>
