<?xml version="1.0" encoding="utf-8"?>
<!-- Generator: Adobe Illustrator 15.0.0, SVG Export Plug-In . SVG Version: 6.00 Build 0)  -->
<!DOCTYPE svg PUBLIC "-//W3C//DTD SVG 1.1//EN" "http://www.w3.org/Graphics/SVG/1.1/DTD/svg11.dtd">
<svg version="1.1" id="Layer_1" xmlns="http://www.w3.org/2000/svg" xmlns:xlink="http://www.w3.org/1999/xlink" x="0px" y="0px"
	 width="422.492px" height="342.668px" viewBox="0 0 422.492 342.668" enable-background="new 0 0 422.492 342.668"
	 xml:space="preserve">
<path fill="none" d="M189.703,286.557H20.839v34.066c0,5.994,4.876,10.869,10.87,10.869h165.343
	c-4.581-5.442-7.349-12.463-7.349-20.117V286.557z M151.541,312.518H119.51c-1.426,0-2.587-1.16-2.587-2.586
	c0-1.428,1.161-2.588,2.587-2.588h32.03c1.427,0,2.588,1.16,2.588,2.588C154.128,311.357,152.967,312.518,151.541,312.518z"/>
<path fill="none" d="M239.34,8.173H31.709c-7.648,0-13.87,6.223-13.87,13.871v29.94v3h3H250.21h3v-3v-29.94
	C253.21,14.396,246.988,8.173,239.34,8.173z M160.837,36.816h-50.623c-1.426,0-2.587-1.161-2.587-2.587s1.161-2.587,2.587-2.587
	h50.623c1.427,0,2.588,1.161,2.588,2.587S162.264,36.816,160.837,36.816z M210.59,36.816h-6.785c-1.427,0-2.588-1.161-2.588-2.587
	s1.161-2.587,2.588-2.587h6.785c1.426,0,2.587,1.161,2.587,2.587S212.016,36.816,210.59,36.816z"/>
<path fill="none" d="M306.2,114.669h-85.206c-12.746,0-23.116,10.371-23.116,23.117v3.992v3h3h125.439h3v-3v-3.992
	C329.317,125.04,318.947,114.669,306.2,114.669z M284.787,134.11h-42.38c-1.427,0-2.587-1.161-2.587-2.587
	c0-1.427,1.16-2.588,2.587-2.588h42.38c1.427,0,2.587,1.161,2.587,2.588C287.374,132.949,286.214,134.11,284.787,134.11z"/>
<path fill="none" d="M220.995,331.493h85.206c11.092,0,20.117-9.022,20.117-20.117v-6.793H200.879v6.793
	C200.879,322.469,209.903,331.493,220.995,331.493z M256.029,316.066h15.137c1.427,0,2.587,1.16,2.587,2.586
	c0,1.428-1.16,2.588-2.587,2.588h-15.137c-1.428,0-2.588-1.16-2.588-2.588C253.441,317.227,254.604,316.066,256.029,316.066z"/>
<path fill="#525252" d="M160.837,31.642h-50.623c-1.426,0-2.587,1.161-2.587,2.587s1.161,2.587,2.587,2.587h50.623
	c1.427,0,2.588-1.161,2.588-2.587S162.264,31.642,160.837,31.642z"/>
<path fill="#525252" d="M210.59,31.642h-6.785c-1.427,0-2.588,1.161-2.588,2.587s1.161,2.587,2.588,2.587h6.785
	c1.426,0,2.587-1.161,2.587-2.587S212.016,31.642,210.59,31.642z"/>
<path fill="#525252" d="M151.54,307.344h-32.03c-1.426,0-2.587,1.16-2.587,2.588c0,1.426,1.161,2.586,2.587,2.586h32.031
	c1.426,0,2.587-1.16,2.587-2.586C154.128,308.504,152.967,307.344,151.54,307.344z"/>
<path fill="#525252" d="M287.559,179.882c-0.49-0.491-1.141-0.76-1.83-0.76c-0.69,0-1.34,0.269-1.828,0.757l-47.246,47.246
	c-0.488,0.488-0.758,1.141-0.758,1.831s0.269,1.339,0.756,1.827c0.49,0.488,1.14,0.758,1.83,0.758c0.691,0,1.343-0.27,1.832-0.758
	l47.244-47.246c0.488-0.488,0.758-1.139,0.758-1.828S288.047,180.37,287.559,179.882z"/>
<path fill="#525252" d="M285.729,211.363c-0.69,0-1.342,0.271-1.83,0.759l-47.244,47.246c-0.488,0.489-0.758,1.139-0.758,1.829
	c0,0.689,0.269,1.34,0.758,1.828c0.488,0.488,1.138,0.758,1.828,0.758c0.691,0,1.343-0.27,1.832-0.758l47.244-47.246
	c1.008-1.008,1.006-2.648-0.002-3.657C287.068,211.633,286.419,211.363,285.729,211.363z"/>
<path fill="#525252" d="M329.318,246.788c0,1.426,1.159,2.586,2.587,2.586c1.427,0,2.587-1.16,2.587-2.586V137.786
	c0-15.6-12.691-28.291-28.291-28.291h-44.815h-3v-3V22.044C258.385,11.543,249.842,3,239.342,3H31.709
	c-10.5,0-19.043,8.543-19.043,19.044v192.421c0,1.428,1.161,2.588,2.587,2.588c1.426,0,2.587-1.16,2.587-2.588V63.159v-3h3h229.371
	h3v3v43.336v3h-3h-29.217c-15.6,0-28.291,12.691-28.291,28.291v137.595v3h-3H20.839h-3v-3v-27.275c0-1.428-1.161-2.588-2.587-2.588
	c-1.426,0-2.587,1.16-2.587,2.588v72.521c0,10.501,8.543,19.045,19.044,19.045h185.799v-0.036l3.036,0.021
	c0.103,0.003,0.203,0.006,0.304,0.01c0.049,0.002,0.098,0.005,0.146,0.005H306.2c15.6,0,28.291-12.692,28.291-28.293v-34.688
	c0-1.426-1.16-2.586-2.587-2.586c-1.428,0-2.588,1.16-2.588,2.586v16.722v3h-3H200.878h-3v-3V152.952v-3h3h125.44h3v3V246.788z
	 M253.21,51.984v3h-3H20.839h-3v-3v-29.94c0-7.648,6.222-13.871,13.87-13.871H239.34c7.648,0,13.87,6.223,13.87,13.871V51.984
	L253.21,51.984z M197.879,304.583v-3h3h125.439h3v3v6.793c0,12.747-10.37,23.117-23.117,23.117h-85.206
	c-12.746,0-23.116-10.37-23.116-23.117V304.583z M199.347,329.561l4.151,4.933h-6.446H31.709c-7.648,0-13.87-6.222-13.87-13.869
	v-34.067v-3h3h168.864h3v3v24.819C192.703,318.012,195.063,324.471,199.347,329.561z M329.317,141.778v3h-3H200.878h-3v-3v-3.992
	c0-12.747,10.37-23.117,23.116-23.117H306.2c12.747,0,23.117,10.371,23.117,23.117V141.778L329.317,141.778z"/>
<path fill="#525252" d="M284.787,128.935h-42.38c-1.427,0-2.587,1.161-2.587,2.588c0,1.426,1.16,2.587,2.587,2.587h42.38
	c1.427,0,2.587-1.161,2.587-2.587C287.374,130.096,286.214,128.935,284.787,128.935z"/>
<path fill="#525252" d="M256.029,321.24h15.137c1.427,0,2.587-1.16,2.587-2.588c0-1.426-1.16-2.586-2.587-2.586h-15.137
	c-1.428,0-2.588,1.16-2.588,2.586C253.441,320.08,254.604,321.24,256.029,321.24z"/>
<path fill="#525252" d="M159.147,122.738c-0.691,0-1.34,0.269-1.827,0.756l-47.249,47.247c-0.488,0.488-0.758,1.139-0.758,1.83
	c0,0.691,0.269,1.34,0.757,1.828c0.489,0.488,1.139,0.758,1.83,0.758s1.341-0.27,1.829-0.758l47.246-47.246
	c1.009-1.009,1.009-2.65,0-3.659C160.488,123.007,159.838,122.738,159.147,122.738z"/>
<path fill="#525252" d="M157.32,155.736l-47.248,47.247c-1.009,1.01-1.008,2.65,0,3.66c0.488,0.487,1.138,0.756,1.829,0.756
	s1.34-0.27,1.83-0.758l47.245-47.246c1.008-1.009,1.008-2.65,0-3.66c-0.487-0.487-1.137-0.756-1.829-0.756
	C158.457,154.979,157.808,155.248,157.32,155.736z"/>
<g>
	<rect x="345.409" y="260.99" fill="none" width="54.705" height="42.099"/>
</g>
<path fill="#FF0000" d="M411.655,260.885c-0.812,0-1.472,0.659-1.472,1.471v10.703c0,0.812,0.66,1.471,1.472,1.471
	c0.811,0,1.47-0.659,1.47-1.471v-10.703C413.125,261.544,412.466,260.885,411.655,260.885z"/>
<g>
	<path fill="#525252" d="M411.655,280.438c-1.087,0-1.972,0.883-1.972,1.972v19.317c0,1.088,0.885,1.971,1.972,1.971
		c1.089,0,1.97-0.883,1.97-1.971v-19.317C413.625,281.32,412.744,280.438,411.655,280.438z"/>
	<g>
		<path fill="none" d="M411.655,280.938c-0.812,0-1.472,0.66-1.472,1.472v19.317c0,0.812,0.66,1.471,1.472,1.471
			c0.811,0,1.47-0.659,1.47-1.471v-19.317C413.125,281.598,412.466,280.938,411.655,280.938z"/>
		<path fill="#525252" d="M411.655,275.029c1.089,0,1.97-0.881,1.97-1.971v-10.703c0-1.09-0.881-1.971-1.97-1.971
			c-1.087,0-1.972,0.881-1.972,1.971v10.703C409.685,274.148,410.568,275.029,411.655,275.029z"/>
	</g>
</g>
<path fill="#525252" d="M394.116,244.582l-0.35-0.059l-3.606-20.582c-0.207-1.176-1.225-2.03-2.418-2.03h-30.251
	c-1.194,0-2.211,0.854-2.418,2.03l-3.616,20.625l-0.34,0.064c-6.731,1.273-11.617,7.172-11.617,14.023v46.773
	c0,6.852,4.886,12.748,11.617,14.02l0.34,0.064l3.616,20.627c0.207,1.176,1.224,2.028,2.418,2.028h30.251
	c1.193,0,2.211-0.854,2.418-2.028l3.606-20.58l0.35-0.059c6.898-1.156,11.907-7.076,11.907-14.072v-46.773
	C406.023,251.656,401.016,245.736,394.116,244.582z M359.553,226.818h26.128l3.079,17.563h-32.286L359.553,226.818z
	 M345.461,254.352c1.62-3.121,4.806-5.061,8.313-5.061h37.977c3.507,0,6.692,1.939,8.313,5.061l0.381,0.73h-55.361L345.461,254.352z
	 M385.681,337.26h-26.128l-3.078-17.561h32.288L385.681,337.26z M400.063,309.729c-1.62,3.123-4.807,5.063-8.313,5.063h-37.977
	c-3.509,0-6.693-1.938-8.313-5.063l-0.379-0.729h55.36L400.063,309.729z M401.114,304.088h-56.705V259.99h56.705V304.088z"/>
<path fill="#525252" d="M388.41,269.938c-0.927-0.926-2.546-0.924-3.474,0l-12.176,12.176l-7.608-7.608
	c-0.464-0.464-1.08-0.719-1.735-0.719c-0.654,0-1.271,0.255-1.735,0.719c-0.957,0.956-0.957,2.515,0,3.474l9.345,9.344
	c0.923,0.926,2.546,0.928,3.473,0l13.912-13.911C389.366,272.452,389.366,270.895,388.41,269.938z"/>
</svg>
