<?xml version="1.0" encoding="utf-8"?>
<!-- Generator: Adobe Illustrator 15.0.0, SVG Export Plug-In . SVG Version: 6.00 Build 0)  -->
<!DOCTYPE svg PUBLIC "-//W3C//DTD SVG 1.1//EN" "http://www.w3.org/Graphics/SVG/1.1/DTD/svg11.dtd">
<svg version="1.1" id="Layer_1" xmlns="http://www.w3.org/2000/svg" xmlns:xlink="http://www.w3.org/1999/xlink" x="0px" y="0px"
	 width="268.405px" height="90px" viewBox="0 0 268.405 90" enable-background="new 0 0 268.405 90" xml:space="preserve">
<g>
	<g>
		<path fill="#666666" d="M41.44,75.288c0-0.561,0.432-0.993,0.993-0.993h3.425c2.625,0,4.258,1.489,4.258,3.746v0.032
			c0,2.513-2.017,3.825-4.482,3.825h-2.225v2.705c0,0.544-0.432,0.977-0.976,0.977c-0.561,0-0.993-0.432-0.993-0.977V75.288z
			 M45.698,80.122c1.489,0,2.417-0.833,2.417-2.001v-0.032c0-1.313-0.944-2-2.417-2h-2.289v4.034H45.698z"/>
		<path fill="#666666" d="M53.408,75.288c0-0.561,0.432-0.993,0.993-0.993h4.001c1.409,0,2.513,0.416,3.233,1.121
			c0.592,0.608,0.928,1.44,0.928,2.417v0.032c0,1.793-1.041,2.881-2.545,3.346l2.145,2.705c0.192,0.24,0.32,0.448,0.32,0.752
			c0,0.544-0.464,0.913-0.944,0.913c-0.448,0-0.736-0.208-0.96-0.512l-2.721-3.474h-2.481v3.009c0,0.544-0.432,0.977-0.976,0.977
			c-0.561,0-0.993-0.432-0.993-0.977V75.288z M58.258,79.85c1.409,0,2.305-0.736,2.305-1.873v-0.032c0-1.2-0.865-1.856-2.321-1.856
			h-2.865v3.761H58.258z"/>
		<path fill="#666666" d="M65.76,79.93v-0.032c0-3.153,2.433-5.794,5.875-5.794s5.842,2.609,5.842,5.762v0.032
			c0,3.153-2.433,5.794-5.875,5.794S65.76,83.083,65.76,79.93z M75.412,79.93v-0.032c0-2.177-1.584-3.986-3.81-3.986
			c-2.225,0-3.777,1.777-3.777,3.954v0.032c0,2.177,1.584,3.969,3.81,3.969C73.859,83.867,75.412,82.106,75.412,79.93z"/>
		<path fill="#666666" d="M87.216,75.224c0-0.544,0.433-0.992,0.992-0.992h0.208c0.433,0,0.721,0.224,0.913,0.528l3.394,5.314
			l3.409-5.33c0.208-0.336,0.496-0.512,0.896-0.512h0.208c0.56,0,0.992,0.448,0.992,0.992v9.38c0,0.544-0.433,0.977-0.992,0.977
			c-0.528,0-0.977-0.448-0.977-0.977v-6.723l-2.737,4.114c-0.208,0.32-0.464,0.512-0.832,0.512c-0.353,0-0.608-0.192-0.816-0.512
			l-2.722-4.082v6.707c0,0.544-0.432,0.96-0.976,0.96c-0.545,0-0.961-0.416-0.961-0.96V75.224z"/>
		<path fill="#666666" d="M101.888,79.93v-0.032c0-3.153,2.433-5.794,5.874-5.794s5.843,2.609,5.843,5.762v0.032
			c0,3.153-2.433,5.794-5.874,5.794S101.888,83.083,101.888,79.93z M111.54,79.93v-0.032c0-2.177-1.585-3.986-3.81-3.986
			c-2.226,0-3.778,1.777-3.778,3.954v0.032c0,2.177,1.585,3.969,3.81,3.969C109.987,83.867,111.54,82.106,111.54,79.93z"/>
		<path fill="#666666" d="M117.264,75.288c0-0.561,0.433-0.993,0.992-0.993h4.034c1.28,0,2.289,0.352,2.929,0.993
			c0.496,0.496,0.753,1.104,0.753,1.856v0.032c0,1.344-0.769,2.065-1.601,2.497c1.313,0.448,2.225,1.2,2.225,2.721v0.032
			c0,2.001-1.648,3.073-4.146,3.073h-4.194c-0.56,0-0.992-0.432-0.992-0.992V75.288z M121.89,79.018
			c1.265,0,2.113-0.497,2.113-1.521v-0.032c0-0.88-0.705-1.425-1.969-1.425H119.2v2.978H121.89z M122.466,83.755
			c1.345,0,2.161-0.528,2.161-1.537v-0.032c0-0.944-0.753-1.504-2.305-1.504H119.2v3.073H122.466z"/>
		<path fill="#666666" d="M130.208,75.192c0-0.544,0.432-0.977,0.992-0.977c0.544,0,0.977,0.432,0.977,0.977v9.412
			c0,0.544-0.433,0.977-0.977,0.977c-0.561,0-0.992-0.432-0.992-0.977V75.192z"/>
		<path fill="#666666" d="M136.447,75.192c0-0.544,0.433-0.977,0.992-0.977c0.545,0,0.977,0.432,0.977,0.977v8.515h5.074
			c0.496,0,0.896,0.4,0.896,0.896s-0.4,0.896-0.896,0.896h-6.051c-0.56,0-0.992-0.432-0.992-0.992V75.192z"/>
		<path fill="#666666" d="M147.743,75.192c0-0.544,0.432-0.977,0.992-0.977c0.544,0,0.977,0.432,0.977,0.977v9.412
			c0,0.544-0.433,0.977-0.977,0.977c-0.561,0-0.992-0.432-0.992-0.977V75.192z"/>
		<path fill="#666666" d="M156.735,76.12h-2.721c-0.513,0-0.912-0.416-0.912-0.912c0-0.497,0.399-0.913,0.912-0.913h7.443
			c0.496,0,0.896,0.416,0.896,0.913c0,0.496-0.399,0.912-0.896,0.912h-2.737v8.483c0,0.544-0.448,0.977-0.992,0.977
			c-0.545,0-0.993-0.432-0.993-0.977V76.12z"/>
		<path fill="#666666" d="M168.784,81.146l-3.857-5.298c-0.128-0.192-0.224-0.416-0.224-0.688c0-0.528,0.432-0.944,0.992-0.944
			c0.432,0,0.72,0.24,0.96,0.592l3.121,4.498l3.17-4.514c0.24-0.352,0.528-0.592,0.944-0.592c0.576,0,0.96,0.433,0.96,0.96
			c0,0.272-0.128,0.512-0.271,0.705l-3.826,5.234v3.505c0,0.544-0.432,0.977-0.992,0.977c-0.544,0-0.977-0.432-0.977-0.977V81.146z"
			/>
	</g>
	<path fill="none" d="M126.179,39.96c-0.36,0-0.72,0.09-1.08,0.27l-19.89,11.88c-0.601,0.42-0.9,1.021-0.9,1.8c0,0.18,0,0.36,0,0.54
		c0.84,2.52,2.309,4.56,4.41,6.12c2.219,1.62,4.68,2.43,7.38,2.43c3.42,0,6.329-1.2,8.729-3.6c2.399-2.459,3.601-5.369,3.601-8.73
		v-8.46C128.429,40.711,127.678,39.96,126.179,39.96z"/>
	<path fill="none" d="M197.967,27c-3.42,0-6.331,1.201-8.73,3.6c-2.4,2.4-3.6,5.31-3.6,8.73v11.34c0,3.42,1.199,6.331,3.6,8.73
		c2.399,2.4,5.311,3.6,8.73,3.6s6.329-1.2,8.729-3.6c2.46-2.399,3.69-5.31,3.69-8.73V39.33c0-3.42-1.23-6.33-3.69-8.73
		C204.296,28.201,201.387,27,197.967,27z"/>
	<path fill="none" d="M258.955,29.43c-2.16-1.62-4.621-2.43-7.38-2.43c-3.361,0-6.271,1.201-8.73,3.6c-2.4,2.461-3.6,5.4-3.6,8.82
		v8.37c0,1.5,0.75,2.25,2.25,2.25c0.419,0,0.779-0.09,1.08-0.27l19.89-11.88c0.66-0.419,0.99-1.02,0.99-1.8
		c0-0.18-0.031-0.36-0.09-0.54C262.585,33.03,261.115,30.991,258.955,29.43z"/>
	<path fill="#DB1721" d="M56.92,22.5c-3.361,0-6.45,0.931-9.27,2.79c-0.36,0.18-0.751,0.27-1.17,0.27
		c-1.021,0-1.711-0.479-2.07-1.44c-0.36-1.08-1.08-1.62-2.16-1.62c-1.44,0-2.191,0.751-2.25,2.25v15.648l4.622-2.777
		c0.35-2.688,1.529-5.032,3.568-7.021c2.398-2.399,5.31-3.6,8.729-3.6s6.33,1.201,8.73,3.6c2.398,2.4,3.6,5.31,3.6,8.73v25.92
		c0,1.5,0.75,2.25,2.25,2.25c1.499,0,2.25-0.75,2.25-2.25V39.33c0-4.62-1.651-8.58-4.95-11.88C65.5,24.151,61.539,22.5,56.92,22.5z"
		/>
	<path fill="#DB1721" d="M40,65.25c0,1.5,0.75,2.25,2.25,2.25c1.499,0,2.25-0.75,2.25-2.25V50.58v-6.002L40,47.282V65.25z"/>
	<path fill="#DB1721" d="M96.649,22.5h-7.83c-1.44,0-2.191-0.72-2.25-2.16V2.25C86.509,0.751,85.76,0,84.319,0
		c-1.5,0-2.25,0.751-2.25,2.25v63.42c0,2.012,4.5,2.361,4.5,0V29.25c0-1.499,0.75-2.25,2.25-2.25h7.83c1.499,0,2.25-0.75,2.25-2.25
		C98.899,23.251,98.148,22.5,96.649,22.5z"/>
	<path fill="#DB1721" d="M116.099,22.5c-6.061,0-10.771,2.551-14.13,7.65c-0.301,0.36-0.45,0.781-0.45,1.26
		c0,1.5,0.75,2.25,2.25,2.25c0.84,0,1.47-0.329,1.89-0.99c2.46-3.78,5.94-5.67,10.44-5.67c4.019,0,7.259,1.59,9.72,4.77
		c0.3,0.36,0.45,0.78,0.45,1.26c0,0.72-0.301,1.321-0.9,1.8l-25.109,15.21c-0.661,0.42-0.99,1.021-0.99,1.8
		c0.3,4.381,2.07,8.071,5.31,11.07c3.24,3.06,7.079,4.59,11.521,4.59c4.68,0,8.67-1.649,11.97-4.95
		c3.24-3.299,4.86-7.259,4.86-11.88V39.42c0-4.68-1.62-8.669-4.86-11.97C124.769,24.151,120.778,22.5,116.099,22.5z M128.429,50.67
		c0,3.361-1.201,6.271-3.601,8.73c-2.4,2.4-5.31,3.6-8.729,3.6c-2.7,0-5.161-0.81-7.38-2.43c-2.102-1.56-3.57-3.6-4.41-6.12
		c0-0.18,0-0.36,0-0.54c0-0.779,0.3-1.38,0.9-1.8l19.89-11.88c0.36-0.18,0.72-0.27,1.08-0.27c1.499,0,2.25,0.751,2.25,2.25V50.67z"
		/>
	<path fill="#DB1721" d="M156.987,22.5c-3.361,0-6.45,0.931-9.27,2.79c-0.36,0.18-0.751,0.27-1.17,0.27
		c-1.021,0-1.711-0.479-2.07-1.44c-0.36-1.08-1.08-1.62-2.16-1.62c-1.44,0-2.191,0.751-2.25,2.25v40.5c0,1.5,0.75,2.25,2.25,2.25
		c1.499,0,2.25-0.75,2.25-2.25V50.58V39.33c0-3.42,1.229-6.33,3.69-8.73c2.398-2.399,5.31-3.6,8.729-3.6s6.33,1.201,8.73,3.6
		c2.398,2.4,3.6,5.31,3.6,8.73v25.92c0,1.5,0.75,2.25,2.25,2.25c1.499,0,2.25-0.75,2.25-2.25V39.33c0-4.62-1.651-8.58-4.95-11.88
		C165.567,24.151,161.606,22.5,156.987,22.5z"/>
	<path fill="#DB1721" d="M212.637,22.5c-1.08,0-1.8,0.54-2.16,1.62c-0.359,0.96-1.051,1.44-2.07,1.44c-0.42,0-0.81-0.09-1.17-0.27
		c-2.82-1.859-5.91-2.79-9.27-2.79c-4.621,0-8.581,1.651-11.88,4.95c-3.301,3.3-4.95,7.26-4.95,11.88v11.34
		c0,4.621,1.649,8.581,4.95,11.88c3.299,3.301,7.259,4.95,11.88,4.95c3.24,0,6.239-0.869,9-2.61c0.36-0.18,0.749-0.27,1.17-0.27
		c1.499,0,2.25,0.751,2.25,2.25v6.3c0,3.359-1.201,6.269-3.6,8.73c-2.461,2.399-5.4,3.6-8.82,3.6c-4.5,0-7.98-1.921-10.44-5.76
		c-0.48-0.661-1.11-0.99-1.89-0.99c-1.5,0-2.25,0.75-2.25,2.25c0,0.479,0.149,0.93,0.45,1.35c3.359,5.099,8.1,7.65,14.22,7.65
		c4.619,0,8.58-1.651,11.88-4.95c3.299-3.3,4.95-7.26,4.95-11.88V24.75C214.887,23.251,214.136,22.5,212.637,22.5z M210.387,50.67
		c0,3.42-1.23,6.331-3.69,8.73c-2.4,2.4-5.31,3.6-8.729,3.6s-6.331-1.2-8.73-3.6c-2.4-2.399-3.6-5.31-3.6-8.73V39.33
		c0-3.42,1.199-6.33,3.6-8.73c2.399-2.399,5.311-3.6,8.73-3.6s6.329,1.201,8.729,3.6c2.46,2.4,3.69,5.31,3.69,8.73V50.67z"/>
	<path fill="#DB1721" d="M224.727,0c-1.5,0-2.25,0.751-2.25,2.25v63c0,1.5,0.75,2.25,2.25,2.25c1.499,0,2.25-0.75,2.25-2.25v-63
		C226.977,0.751,226.226,0,224.727,0z"/>
	<path fill="#DB1721" d="M263.186,27.09c-3.24-3.06-7.11-4.59-11.61-4.59c-4.621,0-8.581,1.651-11.88,4.95
		c-3.301,3.3-4.95,7.29-4.95,11.97v11.25c0,4.621,1.649,8.581,4.95,11.88c3.299,3.301,7.259,4.95,11.88,4.95
		c6.12,0,10.829-2.549,14.13-7.65c0.3-0.36,0.45-0.779,0.45-1.26c0-1.499-0.751-2.25-2.25-2.25c-0.961,0-1.591,0.331-1.891,0.99
		c-2.461,3.78-5.939,5.67-10.439,5.67c-3.96,0-7.2-1.589-9.72-4.77c-0.241-0.36-0.36-0.779-0.36-1.26c0-0.72,0.3-1.319,0.9-1.8
		l25.02-15.12c0.659-0.479,0.99-1.109,0.99-1.89C268.104,33.781,266.364,30.091,263.186,27.09z M262.465,37.89l-19.89,11.88
		c-0.301,0.18-0.661,0.27-1.08,0.27c-1.5,0-2.25-0.75-2.25-2.25v-8.37c0-3.42,1.199-6.359,3.6-8.82c2.46-2.399,5.369-3.6,8.73-3.6
		c2.759,0,5.22,0.81,7.38,2.43c2.16,1.561,3.63,3.6,4.41,6.12c0.059,0.18,0.09,0.36,0.09,0.54
		C263.455,36.871,263.125,37.471,262.465,37.89z"/>
	<path fill="#DB1721" d="M25.56,59.4c-2.398,2.399-5.31,3.6-8.729,3.6s-6.33-1.201-8.73-3.6c-2.398-2.4-3.6-5.31-3.6-8.73V24.75
		c0-1.5-0.75-2.25-2.25-2.25C0.751,22.5,0,23.25,0,24.75v25.92c0,4.62,1.651,8.58,4.95,11.88c3.3,3.299,7.261,4.95,11.88,4.95
		c3.361,0,6.45-0.931,9.27-2.79c0.36-0.18,0.751-0.27,1.17-0.27c1.021,0,1.711,0.479,2.07,1.44c0.36,1.08,1.08,1.62,2.16,1.62
		c1.44,0,2.191-0.751,2.25-2.25V51.037l-4.946,2.972C28.249,56.024,27.175,57.824,25.56,59.4z"/>
	<path fill="#DB1721" d="M33.75,24.75c0-1.5-0.75-2.25-2.25-2.25c-1.499,0-2.25,0.75-2.25,2.25v14.67v7.438l4.5-2.704V24.75z"/>
</g>
</svg>
