<?xml version="1.0" encoding="utf-8"?>
<!-- Generator: Adobe Illustrator 15.0.0, SVG Export Plug-In . SVG Version: 6.00 Build 0)  -->
<!DOCTYPE svg PUBLIC "-//W3C//DTD SVG 1.1//EN" "http://www.w3.org/Graphics/SVG/1.1/DTD/svg11.dtd">
<svg version="1.1" id="Layer_1" xmlns="http://www.w3.org/2000/svg" xmlns:xlink="http://www.w3.org/1999/xlink" x="0px" y="0px"
	 width="21.49px" height="26.632px" viewBox="0 0 21.49 26.632" enable-background="new 0 0 21.49 26.632" xml:space="preserve">
<g>
	<path fill="#DA1F26" d="M19.488,26.632H2c-1.102,0-2-0.895-2-2V2c0-1.102,0.898-2,2-2h12.699c0.223,0,0.402,0.179,0.402,0.398
		c0,0.223-0.18,0.402-0.402,0.402H2C1.34,0.8,0.801,1.339,0.801,2v22.632c0,0.664,0.539,1.204,1.199,1.204h17.488
		c0.664,0,1.199-0.54,1.199-1.204V6.964c0-0.222,0.18-0.402,0.402-0.402c0.219,0,0.398,0.18,0.398,0.402v17.672
		C21.488,25.737,20.594,26.632,19.488,26.632L19.488,26.632z M19.488,26.632"/>
	<path fill="#DA1F26" d="M21.09,7.363h-6.391c-0.219,0-0.398-0.18-0.398-0.399v-6.39c0-0.223,0.18-0.403,0.398-0.403
		c0.223,0,0.402,0.18,0.402,0.403v5.988h5.988c0.219,0,0.398,0.18,0.398,0.399C21.488,7.183,21.309,7.363,21.09,7.363L21.09,7.363z
		 M21.09,7.363"/>
	<path fill="#DA1F26" d="M21.09,7.363c-0.105,0-0.211-0.039-0.289-0.121l-6.387-6.563c-0.152-0.156-0.152-0.41,0.008-0.566
		c0.156-0.152,0.41-0.149,0.566,0.008l6.387,6.562c0.156,0.16,0.152,0.414-0.008,0.567C21.289,7.324,21.191,7.363,21.09,7.363
		L21.09,7.363z M21.09,7.363"/>
	<path fill="#DA1F26" d="M13.867,21.226c-0.086,0-0.168-0.026-0.238-0.078l-2.977-2.16l-2.98,2.16c-0.141,0.103-0.328,0.103-0.469,0
		c-0.141-0.102-0.199-0.28-0.144-0.444l1.136-3.5l-2.98-2.168c-0.141-0.103-0.199-0.281-0.145-0.446
		c0.055-0.164,0.207-0.277,0.383-0.277h3.68l1.137-3.5c0.054-0.164,0.207-0.277,0.382-0.277c0.172,0,0.325,0.113,0.379,0.277
		l1.137,3.5h3.684c0.176,0,0.328,0.113,0.383,0.277c0.051,0.165-0.008,0.344-0.148,0.446l-2.98,2.168l1.141,3.5
		c0.051,0.164-0.008,0.343-0.148,0.444C14.031,21.199,13.949,21.226,13.867,21.226L13.867,21.226z M6.684,15.112l2.218,1.613
		c0.137,0.103,0.2,0.281,0.145,0.445L8.199,19.78l2.215-1.612c0.145-0.103,0.332-0.103,0.473,0l2.214,1.612l-0.844-2.609
		c-0.055-0.164,0.004-0.343,0.145-0.445l2.219-1.613h-2.742c-0.176,0-0.328-0.112-0.383-0.276l-0.844-2.606l-0.847,2.606
		C9.75,15,9.598,15.112,9.422,15.112H6.684z M6.684,15.112"/>
</g>
</svg>
