<?xml version="1.0" encoding="utf-8"?>
<!-- Generator: Adobe Illustrator 15.0.0, SVG Export Plug-In . SVG Version: 6.00 Build 0)  -->
<!DOCTYPE svg PUBLIC "-//W3C//DTD SVG 1.1//EN" "http://www.w3.org/Graphics/SVG/1.1/DTD/svg11.dtd">
<svg version="1.1" id="Layer_1" xmlns="http://www.w3.org/2000/svg" xmlns:xlink="http://www.w3.org/1999/xlink" x="0px" y="0px"
	 width="512px" height="512px" viewBox="0 0 512 512" enable-background="new 0 0 512 512" xml:space="preserve">
<path fill="#DB1721" d="M277.273,65.179c-2.543,3.955-5.736,7.542-9.518,10.628v118.885h9.518V65.179z"/>
<path fill="#DB1721" d="M470.71,152.145h-70.823v9.516h33.032v337.323H62.564V161.661h33.032v-9.516H41.291
	c-20.838,0-37.791,16.953-37.791,37.79v280.775c0,20.838,16.953,37.788,37.791,37.788H470.71c20.838,0,37.79-16.95,37.79-37.788
	V189.935C508.5,169.098,491.548,152.145,470.71,152.145z M53.048,498.984H41.291c-15.59,0-28.274-12.684-28.274-28.272V189.935
	c0-15.59,12.684-28.274,28.274-28.274h11.758L53.048,498.984L53.048,498.984z M498.983,470.712
	c0,15.591-12.686,28.272-28.273,28.272h-28.274V161.661h28.274c15.59,0,28.273,12.686,28.273,28.274V470.712z"/>
<rect x="465.951" y="300.791" fill="#DB1721" width="9.517" height="59.064"/>
<path fill="#DB1721" d="M102.597,201.693v9.517h16.516v226.47c0,11.729,9.543,21.272,21.274,21.272h214.708
	c11.73,0,21.274-9.544,21.274-21.272V211.21h16.516v-9.517h-33.032V56.135l-37.79-47.238l-37.789,47.238v145.558h-23.518V72.367
	l1.391-1.05c9.612-7.272,15.127-18.216,15.127-30.026c0-20.838-16.953-37.791-37.792-37.791c-20.838,0-37.791,16.953-37.791,37.791
	c0,11.811,5.514,22.753,15.127,30.026l1.389,1.05v129.385L159.979,18.737L76.633,46.519l49.008,155.174H102.597z M322.064,24.135
	l23.14,28.911h-46.279L322.064,24.135z M350.339,62.564v139.129h-23.517V62.564H350.339z M293.791,62.564h23.516v139.129h-23.516
	V62.564z M211.209,41.291c0-15.59,12.684-28.272,28.274-28.272c15.59,0,28.274,12.684,28.274,28.272s-12.684,28.273-28.274,28.273
	S211.209,56.881,211.209,41.291z M251.242,77.459v124.234h-23.516V77.46l4.201,0.858c4.957,1.013,10.158,1.013,15.115,0
	L251.242,77.459z M366.854,211.21v226.47c0,6.481-5.274,11.758-11.76,11.758H140.387c-6.483,0-11.758-5.274-11.758-11.758V211.21
	H366.854z M88.529,52.577l65.299-21.766L208.2,201.693h-72.591L88.529,52.577z"/>
<rect x="110.184" y="73.703" transform="matrix(0.3165 0.9486 -0.9486 0.3165 156.2673 -59.9586)" fill="#DB1721" width="19.112" height="9.508"/>
<rect x="126.695" y="123.255" transform="matrix(0.3165 0.9486 -0.9486 0.3165 214.5543 -41.7539)" fill="#DB1721" width="19.112" height="9.508"/>
<rect x="143.211" y="172.8" transform="matrix(0.3165 0.9486 -0.9486 0.3165 272.8456 -23.5538)" fill="#DB1721" width="19.112" height="9.508"/>
<path fill="#DB1721" d="M152.145,335.081h191.194v-92.097H152.145V335.081z M161.661,252.5h172.161v73.064H161.661V252.5z"/>
<rect x="276.016" y="358.596" fill="#DB1721" width="67.323" height="9.517"/>
</svg>
