<?xml version="1.0" encoding="utf-8"?>
<!-- Generator: Adobe Illustrator 15.0.0, SVG Export Plug-In . SVG Version: 6.00 Build 0)  -->
<!DOCTYPE svg PUBLIC "-//W3C//DTD SVG 1.1//EN" "http://www.w3.org/Graphics/SVG/1.1/DTD/svg11.dtd">
<svg version="1.1" id="Layer_1" xmlns="http://www.w3.org/2000/svg" xmlns:xlink="http://www.w3.org/1999/xlink" x="0px" y="0px"
	 width="512px" height="512px" viewBox="0 0 512 512" enable-background="new 0 0 512 512" xml:space="preserve">
<g>
	<path fill="#DB1721" d="M119.647,183.24c34.554,0,62.665-28.113,62.665-62.667c0-34.553-28.112-62.664-62.665-62.664
		s-62.665,28.112-62.665,62.665C56.983,155.128,85.094,183.24,119.647,183.24z M119.647,68.324c28.812,0,52.25,23.438,52.25,52.249
		c0,28.813-23.439,52.251-52.25,52.251c-28.811,0-52.25-23.438-52.25-52.251C67.397,91.763,90.837,68.324,119.647,68.324z"/>
	<path fill="#DB1721" d="M119.647,402.654H62.19c-9.801,0-17.776-7.974-17.776-17.775V281.455c0-2.87-2.336-5.207-5.207-5.207
		S34,278.585,34,281.455v103.424c0,15.544,12.646,28.19,28.19,28.19h17.776v81.517H62.19c-2.871,0-5.207,2.337-5.207,5.207
		c0,2.872,2.336,5.207,5.207,5.207h45.966c2.871,0,5.207-2.335,5.207-5.207c0-2.87-2.336-5.207-5.207-5.207H90.38v-81.517h29.268
		c10.678,0,17.487,6.791,17.774,17.727l0.001,0.094c0.031,2.846,2.367,5.161,5.207,5.161c2.871,0,5.207-2.336,5.207-5.207
		C147.837,421.094,141.945,402.654,119.647,402.654z"/>
	<path fill="#DB1721" d="M395.442,183.24c34.554,0,62.666-28.113,62.666-62.667c-0.001-34.552-28.112-62.663-62.666-62.663
		c-34.552,0-62.664,28.111-62.664,62.664C332.778,155.128,360.89,183.24,395.442,183.24z M395.442,68.324
		c28.812,0,52.25,23.438,52.25,52.249c0,28.813-23.438,52.251-52.25,52.251c-28.811,0-52.249-23.438-52.249-52.251
		C343.192,91.763,366.632,68.324,395.442,68.324z"/>
	<path fill="#DB1721" d="M481.09,281.455c0-2.87-2.335-5.207-5.207-5.207c-2.871,0-5.207,2.337-5.207,5.207v103.424
		c0,9.802-7.975,17.775-17.777,17.775h-57.457c-22.298,0-28.188,18.44-28.188,28.19c0,2.871,2.336,5.207,5.207,5.207
		c2.84,0,5.176-2.315,5.207-5.161l0.001-0.094c0.286-10.936,7.097-17.727,17.774-17.727h29.268v81.517h-17.775
		c-2.871,0-5.209,2.337-5.209,5.207c0,2.871,2.338,5.208,5.209,5.208h45.965c2.872,0,5.209-2.337,5.209-5.208
		c0-2.87-2.337-5.207-5.209-5.207h-17.775V413.07h17.775c15.545,0,28.19-12.646,28.19-28.19V281.455z"/>
	<path fill="#DB1721" d="M340.801,387.024l81.678-20.424c7.447-1.857,12.646-8.517,12.646-16.196v-91.932
		c0-21.881-17.801-39.682-39.682-39.682c-21.88,0-39.68,17.801-39.68,39.682v56.915l-47.045,15.682v-32.915h17.776
		c2.871,0,5.206-2.337,5.206-5.207c0-2.871-2.335-5.208-5.206-5.208H188.596c-2.871,0-5.207,2.338-5.207,5.209
		c0,2.87,2.336,5.207,5.207,5.207h17.776v32.915l-47.043-15.683v-56.915c0-21.881-17.801-39.682-39.682-39.682
		c-21.881,0-39.682,17.801-39.682,39.682v91.932c0,7.68,5.199,14.339,12.643,16.195l81.682,20.425l20.914,104.559
		c1.557,7.773,8.444,13.418,16.375,13.418h91.932c7.932,0,14.818-5.645,16.377-13.42L340.801,387.024z M206.372,430.844
		l-1.556,55.685l-21.602-108.011L90.38,355.31v-96.838c0-16.139,13.13-29.269,29.268-29.269c16.137,0,29.267,13.13,29.267,29.269
		v64.419l57.458,19.152V430.844z M298.305,494.586h-81.519V298.154h81.519V494.586z M308.819,485.584l-0.102-143.54l57.458-19.152
		v-64.419c0-16.139,13.129-29.269,29.267-29.269c16.139,0,29.268,13.13,29.268,29.269v96.838l-92.834,23.209l-10.711,53.558
		L308.819,485.584z"/>
</g>
</svg>
