<?xml version="1.0" encoding="utf-8"?>
<!-- Generator: Adobe Illustrator 15.0.0, SVG Export Plug-In . SVG Version: 6.00 Build 0)  -->
<!DOCTYPE svg PUBLIC "-//W3C//DTD SVG 1.1//EN" "http://www.w3.org/Graphics/SVG/1.1/DTD/svg11.dtd">
<svg version="1.1" id="Capa_1" xmlns="http://www.w3.org/2000/svg" xmlns:xlink="http://www.w3.org/1999/xlink" x="0px" y="0px"
	 width="512px" height="512px" viewBox="0 0 512 512" enable-background="new 0 0 512 512" xml:space="preserve">
<path fill="#DB1721" d="M476.65,264.651H375.674V56.349c0-3.501-2.848-6.349-6.348-6.349H154.674c-3.501,0-6.349,2.848-6.349,6.349
	v208.303H47.348h0c-1.696,0-3.29,0.659-4.489,1.857C41.66,267.707,41,269.302,41,271v214.651c0,3.501,2.848,6.349,6.349,6.349
	H476.65c3.502,0,6.35-2.848,6.35-6.349V271C483,267.5,480.152,264.651,476.65,264.651z M161.023,62.696h201.955v201.955H161.023
	V62.696z M255.651,479.303H53.697V277.349h201.955V479.303z M470.304,479.303H268.348V277.349h201.956V479.303z"/>
<path fill="#DB1721" d="M262,216.019c28.863,0,52.345-23.482,52.345-52.345S290.863,111.33,262,111.33s-52.346,23.481-52.346,52.345
	S233.137,216.019,262,216.019z M262,124.026c21.861,0,39.647,17.786,39.647,39.648c0,21.862-17.786,39.648-39.647,39.648
	c-21.862,0-39.648-17.786-39.648-39.648S240.138,124.026,262,124.026z"/>
<path fill="#DB1721" d="M200.67,325.98h-91.993c-3.5,0-6.349,2.849-6.349,6.35v91.993c0,3.501,2.848,6.349,6.349,6.349h91.993
	c3.5,0,6.349-2.848,6.349-6.349V332.33C207.02,328.829,204.171,325.98,200.67,325.98z M194.323,417.974h-79.297v-79.298h79.297
	V417.974z"/>
<path fill="#DB1721" d="M375.013,329.477c-1.041-2.077-3.711-2.816-5.682-2.816c-2.067,0-4.648,0.744-5.692,2.832l-45.996,91.994
	c-0.99,1.979-0.883,4.29,0.285,6.184c1.158,1.88,3.178,3.001,5.401,3.001h91.994c2.211,0,4.235-1.135,5.413-3.034
	c1.164-1.876,1.266-4.181,0.273-6.165L375.013,329.477z M333.601,417.974l35.726-71.45l35.725,71.45H333.601z"/>
</svg>
