<?xml version="1.0" encoding="utf-8"?>
<!-- Generator: Adobe Illustrator 15.0.0, SVG Export Plug-In . SVG Version: 6.00 Build 0)  -->
<!DOCTYPE svg PUBLIC "-//W3C//DTD SVG 1.1//EN" "http://www.w3.org/Graphics/SVG/1.1/DTD/svg11.dtd">
<svg version="1.1" id="Layer_1" xmlns="http://www.w3.org/2000/svg" xmlns:xlink="http://www.w3.org/1999/xlink" x="0px" y="0px"
	 width="20.855px" height="26.104px" viewBox="0 0 20.855 26.104" enable-background="new 0 0 20.855 26.104" xml:space="preserve">
<path fill="#888888" d="M10.426,26.104c-0.105,0-0.207-0.039-0.281-0.113L0.117,15.96c-0.156-0.156-0.156-0.409,0-0.566
	c0.156-0.156,0.41-0.156,0.566,0l9.742,9.746l9.746-9.746c0.156-0.156,0.41-0.156,0.566,0c0.156,0.157,0.156,0.41,0,0.566
	L10.711,25.987C10.633,26.065,10.531,26.104,10.426,26.104L10.426,26.104z M10.426,26.104 M10.43,26.104
	c-0.223,0-0.402-0.176-0.402-0.398V0.397c0-0.22,0.18-0.397,0.402-0.397c0.219,0,0.398,0.178,0.398,0.397v25.309
	C10.828,25.929,10.648,26.104,10.43,26.104L10.43,26.104z"/>
</svg>
