<?xml version="1.0" encoding="utf-8"?>
<!-- Generator: Adobe Illustrator 15.0.0, SVG Export Plug-In . SVG Version: 6.00 Build 0)  -->
<!DOCTYPE svg PUBLIC "-//W3C//DTD SVG 1.1//EN" "http://www.w3.org/Graphics/SVG/1.1/DTD/svg11.dtd">
<svg version="1.1" id="Capa_1" xmlns="http://www.w3.org/2000/svg" xmlns:xlink="http://www.w3.org/1999/xlink" x="0px" y="0px"
	 width="512px" height="512px" viewBox="0 0 512 512" enable-background="new 0 0 512 512" xml:space="preserve">
<path fill="#DB1721" d="M293.236,128.249c0.66,0.392,1.41,0.599,2.168,0.599c1.521,0,2.893-0.78,3.668-2.086
	c9.826-16.556,27.874-26.841,47.1-26.841c30.178,0,54.729,24.552,54.729,54.729c-0.001,19.128-9.732,36.552-26.03,46.61
	c-0.968,0.597-1.646,1.535-1.906,2.642c-0.261,1.105-0.077,2.249,0.521,3.217c0.781,1.268,2.141,2.023,3.632,2.023
	c0.785,0,1.557-0.221,2.23-0.637c18.827-11.619,30.068-31.753,30.068-53.854c0-34.873-28.371-63.243-63.244-63.243
	c-22.218,0-43.071,11.881-54.423,31.007C290.552,124.433,291.219,127.052,293.236,128.249z"/>
<path fill="#DB1721" d="M447.521,4H244.823c-27.186,0-49.302,22.117-49.302,49.304v166.934c0,2.348,1.91,4.258,4.258,4.258
	c2.348,0,4.258-1.91,4.258-4.258V58.256h284.27v395.488H329.628c-2.348,0-4.258,1.911-4.258,4.261c0,2.348,1.91,4.258,4.258,4.258
	h158.821l-1.013,4.821c-3.939,18.774-20.728,32.401-39.914,32.401H244.823c-2.348,0-4.258,1.91-4.258,4.258
	c0,2.35,1.91,4.26,4.258,4.26h202.699c27.186,0,49.302-22.117,49.302-49.304V53.302C496.823,26.117,474.706,4,447.521,4z
	 M488.449,49.74H203.896l1.012-4.821c3.939-18.774,20.726-32.401,39.916-32.401h202.699c19.188,0,35.976,13.627,39.915,32.401
	L488.449,49.74z"/>
<path fill="#DB1721" d="M374.841,360.295c0-7.61-2.964-14.767-8.347-20.146c-5.372-5.372-12.524-8.331-20.142-8.331
	c-0.543,0-1.086,0.016-1.627,0.046l-4.474,0.255l0.253-4.474c0.457-8.111-2.563-16.046-8.285-21.771
	c-5.382-5.382-12.538-8.346-20.146-8.346c-0.545,0-1.086,0.016-1.625,0.046l-4.466,0.248l0.249-4.465
	c0.452-8.107-2.566-16.038-8.284-21.757c-3.469-3.471-7.795-5.992-12.51-7.296l-6.617-1.83l86.171-86.169
	c11.107-11.109,11.107-29.187,0-40.294c-5.372-5.372-12.527-8.33-20.148-8.33s-14.774,2.958-20.146,8.33L160.813,299.891
	c-22.371,22.371-33.131,52.926-29.523,83.829l0.225,1.923L16.425,500.73c-1.659,1.661-1.66,4.362,0,6.021
	c0.804,0.805,1.874,1.246,3.012,1.246s2.208-0.441,3.012-1.246l116.616-116.613c0.959-0.96,1.406-2.331,1.195-3.668
	c-4.652-29.655,5.035-59.017,26.576-80.557L330.72,142.032c3.769-3.769,8.784-5.844,14.125-5.844c5.342,0,10.357,2.076,14.126,5.845
	s5.844,8.784,5.844,14.125s-2.075,10.357-5.845,14.126L257.65,271.6c-0.803,0.805-1.247,1.875-1.247,3.013s0.444,2.207,1.249,3.013
	c0.803,0.803,1.871,1.244,3.009,1.244c1.139,0,2.209-0.441,3.014-1.247c3.769-3.767,8.784-5.842,14.126-5.842
	s10.358,2.075,14.126,5.844c3.769,3.769,5.843,8.784,5.843,14.125s-2.074,10.356-5.844,14.125c-0.803,0.806-1.246,1.875-1.246,3.014
	c0,1.138,0.443,2.208,1.248,3.015c0.803,0.801,1.872,1.244,3.01,1.244c1.139,0,2.209-0.443,3.014-1.248
	c3.766-3.768,8.782-5.843,14.123-5.843c5.342,0,10.357,2.074,14.127,5.845c7.788,7.787,7.788,20.46,0,28.25
	c-0.804,0.805-1.247,1.874-1.247,3.012s0.441,2.208,1.246,3.012c0.805,0.805,1.875,1.247,3.012,1.247
	c1.138,0,2.207-0.441,3.012-1.247c3.769-3.769,8.784-5.843,14.125-5.843c5.342,0,10.357,2.074,14.125,5.843
	c7.789,7.788,7.789,20.463,0.001,28.254l-62.564,62.563c-17.871,17.872-41.309,27.716-65.996,27.716
	c-4.834,0-9.731-0.383-14.555-1.139c-0.223-0.035-0.445-0.053-0.665-0.053c-1.118,0-2.214,0.455-3.009,1.249l-35.971,35.97
	c-1.659,1.661-1.659,4.364,0,6.025c0.803,0.802,1.873,1.244,3.01,1.244c1.138,0,2.208-0.442,3.013-1.246l34.443-34.445l1.924,0.226
	c3.946,0.461,7.946,0.695,11.891,0.695c26.901,0.001,52.446-10.73,71.935-30.22l62.564-62.569
	C371.876,375.059,374.841,367.904,374.841,360.295z"/>
</svg>
