<?xml version="1.0" encoding="utf-8"?>
<!-- Generator: Adobe Illustrator 22.1.0, SVG Export Plug-In . SVG Version: 6.00 Build 0)  -->
<svg version="1.1" id="Layer_1" xmlns="http://www.w3.org/2000/svg" xmlns:xlink="http://www.w3.org/1999/xlink" x="0px" y="0px"
	 viewBox="0 0 554.5 360.5" style="enable-background:new 0 0 554.5 360.5;" xml:space="preserve">
<style type="text/css">
	.st0{fill:#666666;}
	.st1{fill:#666666;stroke:#666666;stroke-miterlimit:10;}
</style>
<g>
	<path class="st0" d="M307.9,28.6h50.6c1.4,0,2.6,1.2,2.6,2.6s-1.2,2.6-2.6,2.6h-50.6c-1.4,0-2.6-1.2-2.6-2.6S306.5,28.6,307.9,28.6
		z"/>
	<path class="st0" d="M400.1,28.6h10.8c1.4,0,2.6,1.2,2.6,2.6s-1.2,2.6-2.6,2.6h-10.8c-1.4,0-2.6-1.2-2.6-2.6S398.7,28.6,400.1,28.6
		z"/>
	<path class="st0" d="M317.2,304.3h32c1.4,0,2.6,1.2,2.6,2.6c0,1.4-1.2,2.6-2.6,2.6h-32c-1.4,0-2.6-1.2-2.6-2.6
		C314.6,305.5,315.8,304.3,317.2,304.3z"/>
	<path class="st0" d="M181.2,176.9c0.5-0.5,1.1-0.8,1.8-0.8c0.7,0,1.3,0.3,1.8,0.8l47.2,47.2c0.5,0.5,0.8,1.1,0.8,1.8
		s-0.3,1.3-0.8,1.8c-0.5,0.5-1.1,0.8-1.8,0.8c-0.7,0-1.3-0.3-1.8-0.8l-47.2-47.2c-0.5-0.5-0.8-1.1-0.8-1.8S180.7,177.4,181.2,176.9z
		"/>
	<path class="st0" d="M183,208.4c0.7,0,1.3,0.3,1.8,0.8l47.2,47.2c0.5,0.5,0.8,1.1,0.8,1.8c0,0.7-0.3,1.3-0.8,1.8
		c-0.5,0.5-1.1,0.8-1.8,0.8c-0.7,0-1.3-0.3-1.8-0.8l-47.2-47.2c-1-1-1-2.6,0-3.7C181.7,208.6,182.3,208.4,183,208.4z"/>
	<path class="st0" d="M183.9,125.9h42.4c1.4,0,2.6,1.2,2.6,2.6c0,1.4-1.2,2.6-2.6,2.6h-42.4c-1.4,0-2.6-1.2-2.6-2.6
		C181.4,127.1,182.5,125.9,183.9,125.9z"/>
	<path class="st0" d="M212.7,318.2h-15.1c-1.4,0-2.6-1.2-2.6-2.6c0-1.4,1.2-2.6,2.6-2.6h15.1c1.4,0,2.6,1.2,2.6,2.6
		C215.3,317.1,214.1,318.2,212.7,318.2z"/>
	<path class="st0" d="M309.6,119.7c0.7,0,1.3,0.3,1.8,0.8l47.2,47.2c0.5,0.5,0.8,1.1,0.8,1.8s-0.3,1.3-0.8,1.8
		c-0.5,0.5-1.1,0.8-1.8,0.8c-0.7,0-1.3-0.3-1.8-0.8l-47.2-47.2c-1-1-1-2.7,0-3.7C308.2,120,308.9,119.7,309.6,119.7z"/>
	<path class="st0" d="M311.4,152.7l47.2,47.2c1,1,1,2.6,0,3.7c-0.5,0.5-1.1,0.8-1.8,0.8c-0.7,0-1.3-0.3-1.8-0.8l-47.2-47.2
		c-1-1-1-2.6,0-3.7c0.5-0.5,1.1-0.8,1.8-0.8C310.3,152,310.9,152.2,311.4,152.7z"/>
	<path class="st0" d="M116.2,162.9c-0.8,0-1.5,0.7-1.5,1.5v10.7c0,0.8,0.7,1.5,1.5,1.5c0.8,0,1.5-0.7,1.5-1.5v-10.7
		C117.6,163.5,117,162.9,116.2,162.9z"/>
	<g>
		<path class="st0" d="M116.2,182.4c-1.1,0-2,0.9-2,2v19.3c0,1.1,0.9,2,2,2c1.1,0,2-0.9,2-2v-19.3
			C118.1,183.3,117.2,182.4,116.2,182.4z"/>
		<g>
			<path class="st0" d="M116.2,182.9c-0.8,0-1.5,0.7-1.5,1.5v19.3c0,0.8,0.7,1.5,1.5,1.5c0.8,0,1.5-0.7,1.5-1.5v-19.3
				C117.6,183.6,117,182.9,116.2,182.9z"/>
			<path class="st0" d="M116.2,177c1.1,0,2-0.9,2-2v-10.7c0-1.1-0.9-2-2-2c-1.1,0-2,0.9-2,2v10.7C114.2,176.1,115.1,177,116.2,177z"
				/>
		</g>
	</g>
	<path class="st0" d="M98.6,151.6l-0.4-0.1l-3.6-20.6c-0.2-1.2-1.2-2-2.4-2H62c-1.2,0-2.2,0.9-2.4,2L56,151.6l-0.3,0.1
		c-6.7,1.3-11.6,7.2-11.6,14v46.8c0,6.9,4.9,12.7,11.6,14l0.3,0.1l3.6,20.6c0.2,1.2,1.2,2,2.4,2h30.3c1.2,0,2.2-0.9,2.4-2l3.6-20.6
		l0.4-0.1c6.9-1.2,11.9-7.1,11.9-14.1v-46.8C110.5,158.7,105.5,152.7,98.6,151.6z M64.1,133.8h26.1l3.1,17.6H61L64.1,133.8z
		 M50,161.4c1.6-3.1,4.8-5.1,8.3-5.1h38c3.5,0,6.7,1.9,8.3,5.1l0.4,0.7H49.6L50,161.4z M90.2,244.3H64.1L61,226.7h32.3L90.2,244.3z
		 M104.6,216.7c-1.6,3.1-4.8,5.1-8.3,5.1h-38c-3.5,0-6.7-1.9-8.3-5.1l-0.4-0.7h55.4L104.6,216.7z M105.6,211.1H48.9V167h56.7V211.1z
		"/>
	<path class="st0" d="M92.9,171.9c-0.9-0.9-2.5-0.9-3.5,0l-12.2,12.2l-7.6-7.6c-0.5-0.5-1.1-0.7-1.7-0.7c-0.7,0-1.3,0.3-1.7,0.7
		c-1,1-1,2.5,0,3.5l9.3,9.3c0.9,0.9,2.5,0.9,3.5,0l13.9-13.9C93.9,174.5,93.9,172.9,92.9,171.9z"/>
	<g>
		<path class="st1" d="M549.5,163.6c0-1.2,1-2.3,2.3-2.3s2.3,1,2.3,2.3v171.7c0,11.9-22.1,24.6-63,24.6s-63-12.7-63-24.6V163.6
			c0-1.2,1-2.3,2.3-2.3s2.3,1,2.3,2.3v171.7c0,9.7,23.5,20.1,58.5,20.1s58.5-10.4,58.5-20.1"/>
		<path class="st1" d="M491,139c-40.9,0-63,12.7-63,24.6c0,11.9,22.1,24.6,63,24.6s63-12.7,63-24.6C554,151.7,531.9,139,491,139z
			 M491,143.5c35,0,58.5,10.4,58.5,20.1S526,183.8,491,183.8s-58.5-10.4-58.5-20.1S456,143.5,491,143.5z"/>
		<path class="st1" d="M554,303.1c0,11.9-22.1,24.6-63,24.6s-63-12.7-63-24.6c0-1.2,1-2.3,2.3-2.3s2.3,1,2.3,2.3
			c0,9.7,23.5,20.1,58.5,20.1s58.5-10.4,58.5-20.1c0-1.2,1-2.3,2.3-2.3S554,301.9,554,303.1z"/>
		<path class="st1" d="M554,255.4c0,11.9-22.1,24.6-63,24.6s-63-12.7-63-24.6c0-1.2,1-2.3,2.3-2.3s2.3,1,2.3,2.3
			c0,9.7,23.5,20.1,58.5,20.1s58.5-10.4,58.5-20.1c0-1.2,1-2.3,2.3-2.3S554,254.2,554,255.4z"/>
		<circle class="st1" cx="540.2" cy="281" r="2.9"/>
		<path class="st1" d="M540.2,289.5c1.6,0,2.9,1.3,2.9,2.9c0,1.6-1.3,2.9-2.9,2.9c-1.6,0-2.9-1.3-2.9-2.9
			C537.2,290.8,538.5,289.5,540.2,289.5z"/>
		<circle class="st1" cx="540.2" cy="303.8" r="2.9"/>
		<circle class="st1" cx="526.3" cy="287.6" r="2.9"/>
		<path class="st1" d="M526.3,296c1.6,0,2.9,1.3,2.9,2.9c0,1.6-1.3,2.9-2.9,2.9c-1.6,0-2.9-1.3-2.9-2.9
			C523.4,297.3,524.7,296,526.3,296z"/>
		<circle class="st1" cx="526.3" cy="310.4" r="2.9"/>
		<path class="st1" d="M512.6,284.6c1.6,0,2.9,1.3,2.9,2.9c0,1.6-1.3,2.9-2.9,2.9c-1.6,0-2.9-1.3-2.9-2.9
			C509.7,285.9,511,284.6,512.6,284.6z"/>
		<path class="st1" d="M512.6,296c1.6,0,2.9,1.3,2.9,2.9c0,1.6-1.3,2.9-2.9,2.9c-1.6,0-2.9-1.3-2.9-2.9
			C509.7,297.3,511,296,512.6,296z"/>
		<path class="st1" d="M512.6,307.4c1.6,0,2.9,1.3,2.9,2.9c0,1.6-1.3,2.9-2.9,2.9c-1.6,0-2.9-1.3-2.9-2.9
			C509.7,308.8,511,307.4,512.6,307.4z"/>
		<path class="st1" d="M498.6,284.6c1.6,0,2.9,1.3,2.9,2.9c0,1.6-1.3,2.9-2.9,2.9c-1.6,0-2.9-1.3-2.9-2.9
			C495.6,285.9,497,284.6,498.6,284.6z"/>
		<path class="st1" d="M498.6,296c1.6,0,2.9,1.3,2.9,2.9c0,1.6-1.3,2.9-2.9,2.9c-1.6,0-2.9-1.3-2.9-2.9
			C495.6,297.3,497,296,498.6,296z"/>
		<path class="st1" d="M498.6,307.4c1.6,0,2.9,1.3,2.9,2.9c0,1.6-1.3,2.9-2.9,2.9c-1.6,0-2.9-1.3-2.9-2.9
			C495.6,308.8,497,307.4,498.6,307.4z"/>
		<circle class="st1" cx="484.1" cy="287.6" r="2.9"/>
		<path class="st1" d="M484.1,296c1.6,0,2.9,1.3,2.9,2.9c0,1.6-1.3,2.9-2.9,2.9c-1.6,0-2.9-1.3-2.9-2.9
			C481.1,297.3,482.5,296,484.1,296z"/>
		<circle class="st1" cx="484.1" cy="310.4" r="2.9"/>
		<path class="st1" d="M470.2,284.6c1.6,0,2.9,1.3,2.9,2.9c0,1.6-1.3,2.9-2.9,2.9c-1.6,0-2.9-1.3-2.9-2.9
			C467.3,285.9,468.6,284.6,470.2,284.6z"/>
		<path class="st1" d="M470.2,296c1.6,0,2.9,1.3,2.9,2.9c0,1.6-1.3,2.9-2.9,2.9c-1.6,0-2.9-1.3-2.9-2.9
			C467.3,297.3,468.6,296,470.2,296z"/>
		<path class="st1" d="M470.2,307.4c1.6,0,2.9,1.3,2.9,2.9c0,1.6-1.3,2.9-2.9,2.9c-1.6,0-2.9-1.3-2.9-2.9
			C467.3,308.8,468.6,307.4,470.2,307.4z"/>
		<path class="st1" d="M456,284.6c1.6,0,2.9,1.3,2.9,2.9c0,1.6-1.3,2.9-2.9,2.9c-1.6,0-2.9-1.3-2.9-2.9
			C453.1,285.9,454.4,284.6,456,284.6z"/>
		<path class="st1" d="M456,296c1.6,0,2.9,1.3,2.9,2.9c0,1.6-1.3,2.9-2.9,2.9c-1.6,0-2.9-1.3-2.9-2.9C453.1,297.3,454.4,296,456,296
			z"/>
		<path class="st1" d="M456,307.4c1.6,0,2.9,1.3,2.9,2.9c0,1.6-1.3,2.9-2.9,2.9c-1.6,0-2.9-1.3-2.9-2.9
			C453.1,308.8,454.4,307.4,456,307.4z"/>
		<circle class="st1" cx="441.8" cy="281" r="2.9"/>
		<path class="st1" d="M441.8,289.5c1.6,0,2.9,1.3,2.9,2.9c0,1.6-1.3,2.9-2.9,2.9c-1.6,0-2.9-1.3-2.9-2.9
			C438.9,290.8,440.2,289.5,441.8,289.5z"/>
		<circle class="st1" cx="441.8" cy="303.8" r="2.9"/>
	</g>
	<path class="st0" d="M134.2,134.8v128c0,1.4,1.2,2.6,2.6,2.6c1.4,0,2.6-1.2,2.6-2.6V150v-3h3h125.4h3v3v140.5v3h-3h-89.1v5.2h89.1
		h3v3v6.8c0,12.7-10.4,23.1-23.1,23.1h-68.5v5.2h68.5c0,0,0.1,0,0.1,0c0.1,0,0.2,0,0.3,0l3,0v0h176.5v-5.2H271.7h-6.4l4.2-4.9
		c4.3-5.1,6.6-11.5,6.6-18.2v-24.8v-3h3h148.7v-5.2H279h-3v-3V134.8c0-15.6-12.7-28.3-28.3-28.3h-29.2h-3v-3V60.2v-3h3h229.4h3v3
		V144h5.2V19c0-10.5-8.5-19-19-19L229.4,0c-10.5,0-19,8.5-19,19v84.5v3h-3h-44.8C146.9,106.5,134.2,119.2,134.2,134.8z M215.5,19
		c0-7.6,6.2-13.9,13.9-13.9H437c7.6,0,13.9,6.2,13.9,13.9V49v3h-3H218.5h-3v-3V19z M139.4,134.8c0-12.7,10.4-23.1,23.1-23.1h85.2
		c12.7,0,23.1,10.4,23.1,23.1v4v3h-3H142.4h-3v-3V134.8z"/>
	<path class="st0" d="M34.9,355.5h41c6.7,0,12.5-4.6,14-11.1l3.1-13.2c0.9-3.9,4.3-6.6,8.3-6.6c4,0,7.4,2.7,8.3,6.6l3.1,13.2
		c1.5,6.5,7.3,11.1,14,11.1H167c7.6,0,13.8-6.2,13.8-13.8v-65.3c0-7.6-6.2-13.8-13.8-13.8H34.9c-5,0-9.6,2.7-12.1,7.1l-0.7,1.3h-8.3
		c-7.6,0-13.8,6.2-13.8,13.8v35.2c0,7.6,6.2,13.8,13.8,13.8h7.2v7.9C21.1,349.3,27.3,355.5,34.9,355.5z M34.9,268.4H167
		c4.4,0,7.9,3.6,7.9,7.9s-3.6,7.9-7.9,7.9H34.9c-4.4,0-7.9-3.6-7.9-7.9S30.5,268.4,34.9,268.4z M26.9,288.2l3.3,1.2
		c1.5,0.5,3,0.8,4.6,0.8H167c1.6,0,3.1-0.3,4.6-0.8l3.3-1.2v53.5c0,4.4-3.6,7.9-7.9,7.9h-40.3c-4,0-7.4-2.7-8.3-6.6l-3.1-13.2
		c-1.5-6.5-7.3-11.1-14-11.1c-6.7,0-12.5,4.6-14,11.1L84.2,343c-0.9,3.9-4.3,6.6-8.3,6.6h-41c-4.4,0-7.9-3.6-7.9-7.9v-7.9h31.2
		c9.2,0,16.7-7.5,16.7-16.7s-7.5-16.7-16.7-16.7H26.9V288.2z M5.9,284.7c0-4.4,3.6-7.9,7.9-7.9h7.2v23.5h-7.2
		c-4.4,0-7.9-3.6-7.9-7.9V284.7z M13.8,327.8c-4.4,0-7.9-3.6-7.9-7.9v-15.7l3.3,1.2c1.5,0.5,3,0.8,4.6,0.8h44.3
		c6,0,10.8,4.9,10.8,10.8c0,6-4.9,10.8-10.8,10.8H13.8z"/>
	<circle class="st0" cx="57.4" cy="317" r="3.4"/>
	<rect x="38.7" y="313.5" class="st0" width="6.9" height="6.9"/>
	<path class="st0" d="M141.2,301.9c0.5-0.5,1.1-0.8,1.8-0.8c0.7,0,1.3,0.3,1.8,0.8l13.2,13.2c0.5,0.5,0.8,1.1,0.8,1.8
		c0,0.7-0.3,1.3-0.8,1.8c-0.5,0.5-1.1,0.8-1.8,0.8c-0.7,0-1.3-0.3-1.8-0.8l-13.2-13.2c-0.5-0.5-0.8-1.1-0.8-1.8
		S140.7,302.4,141.2,301.9z"/>
	<path class="st0" d="M122,302.4c0.7,0,1.3,0.3,1.8,0.8l31.2,31.2c0.5,0.5,0.8,1.1,0.8,1.8c0,0.7-0.3,1.3-0.8,1.8
		c-0.5,0.5-1.1,0.8-1.8,0.8c-0.7,0-1.3-0.3-1.8-0.8l-31.2-31.2c-1-1-1-2.6,0-3.7C120.7,302.6,121.3,302.4,122,302.4z"/>
</g>
</svg>
