<?xml version="1.0" encoding="utf-8"?>
<!-- Generator: Adobe Illustrator 15.0.0, SVG Export Plug-In . SVG Version: 6.00 Build 0)  -->
<!DOCTYPE svg PUBLIC "-//W3C//DTD SVG 1.1//EN" "http://www.w3.org/Graphics/SVG/1.1/DTD/svg11.dtd">
<svg version="1.1" id="Layer_1" xmlns="http://www.w3.org/2000/svg" xmlns:xlink="http://www.w3.org/1999/xlink" x="0px" y="0px"
	 width="268.404px" height="90px" viewBox="0 0 268.404 90" enable-background="new 0 0 268.404 90" xml:space="preserve">
<g>
	<g>
		<path fill="#0C0C0C" d="M41.44,75.288c0-0.562,0.433-0.993,0.993-0.993h3.425c2.625,0,4.259,1.489,4.259,3.746v0.031
			c0,2.514-2.018,3.826-4.482,3.826H43.41v2.705c0,0.543-0.433,0.977-0.977,0.977c-0.562,0-0.993-0.432-0.993-0.977V75.288z
			 M45.698,80.122c1.488,0,2.417-0.833,2.417-2.001v-0.032c0-1.313-0.944-2-2.417-2h-2.289v4.034L45.698,80.122L45.698,80.122z"/>
		<path fill="#0C0C0C" d="M53.408,75.288c0-0.562,0.432-0.993,0.992-0.993h4.001c1.409,0,2.514,0.416,3.232,1.121
			c0.593,0.607,0.929,1.439,0.929,2.417v0.032c0,1.793-1.041,2.881-2.545,3.346l2.146,2.705c0.191,0.24,0.319,0.447,0.319,0.752
			c0,0.544-0.464,0.913-0.943,0.913c-0.448,0-0.735-0.208-0.96-0.513l-2.722-3.473h-2.48v3.008c0,0.545-0.433,0.978-0.977,0.978
			c-0.562,0-0.992-0.433-0.992-0.978V75.288z M58.258,79.85c1.409,0,2.306-0.736,2.306-1.873v-0.031c0-1.199-0.864-1.855-2.32-1.855
			h-2.865v3.762h2.88V79.85z"/>
		<path fill="#0C0C0C" d="M65.76,79.93v-0.031c0-3.152,2.434-5.795,5.875-5.795c3.442,0,5.843,2.609,5.843,5.764v0.031
			c0,3.152-2.434,5.793-5.875,5.793C68.16,85.691,65.76,83.083,65.76,79.93z M75.412,79.93v-0.031c0-2.178-1.584-3.985-3.811-3.985
			c-2.226,0-3.776,1.776-3.776,3.954v0.031c0,2.178,1.584,3.97,3.81,3.97C73.859,83.867,75.412,82.105,75.412,79.93z"/>
		<path fill="#0C0C0C" d="M87.216,75.225c0-0.545,0.434-0.992,0.992-0.992h0.208c0.434,0,0.722,0.225,0.913,0.527l3.395,5.314
			l3.408-5.33c0.208-0.336,0.496-0.512,0.896-0.512h0.208c0.561,0,0.992,0.447,0.992,0.992v9.379c0,0.545-0.434,0.978-0.992,0.978
			c-0.527,0-0.978-0.448-0.978-0.978V77.88l-2.736,4.114c-0.208,0.318-0.464,0.512-0.832,0.512c-0.354,0-0.607-0.191-0.815-0.512
			l-2.723-4.082v6.707c0,0.544-0.432,0.96-0.977,0.96s-0.961-0.416-0.961-0.96L87.216,75.225L87.216,75.225z"/>
		<path fill="#0C0C0C" d="M101.888,79.93v-0.031c0-3.152,2.433-5.795,5.874-5.795c3.44,0,5.843,2.609,5.843,5.764v0.031
			c0,3.152-2.434,5.793-5.874,5.793C104.29,85.691,101.888,83.083,101.888,79.93z M111.54,79.93v-0.031
			c0-2.178-1.585-3.985-3.811-3.985c-2.227,0-3.777,1.776-3.777,3.954v0.031c0,2.178,1.585,3.97,3.811,3.97
			C109.987,83.868,111.54,82.105,111.54,79.93z"/>
		<path fill="#0C0C0C" d="M117.264,75.288c0-0.562,0.433-0.993,0.991-0.993h4.034c1.279,0,2.289,0.352,2.929,0.993
			c0.496,0.496,0.754,1.104,0.754,1.856v0.03c0,1.345-0.77,2.065-1.602,2.497c1.313,0.448,2.226,1.2,2.226,2.723v0.03
			c0,2.003-1.648,3.073-4.146,3.073h-4.194c-0.561,0-0.991-0.434-0.991-0.992V75.288z M121.89,79.018
			c1.265,0,2.112-0.496,2.112-1.521v-0.032c0-0.88-0.705-1.425-1.969-1.425H119.2v2.978H121.89z M122.466,83.755
			c1.346,0,2.161-0.528,2.161-1.536v-0.033c0-0.942-0.753-1.504-2.306-1.504H119.2v3.073H122.466z"/>
		<path fill="#0C0C0C" d="M130.208,75.191c0-0.543,0.433-0.978,0.992-0.978c0.544,0,0.977,0.433,0.977,0.978v9.412
			c0,0.545-0.433,0.978-0.977,0.978c-0.562,0-0.992-0.433-0.992-0.978V75.191z"/>
		<path fill="#0C0C0C" d="M136.447,75.191c0-0.543,0.434-0.978,0.992-0.978c0.545,0,0.978,0.433,0.978,0.978v8.516h5.074
			c0.495,0,0.896,0.4,0.896,0.896s-0.4,0.896-0.896,0.896h-6.052c-0.561,0-0.991-0.433-0.991-0.992L136.447,75.191L136.447,75.191z"
			/>
		<path fill="#0C0C0C" d="M147.743,75.191c0-0.543,0.432-0.978,0.991-0.978c0.544,0,0.978,0.433,0.978,0.978v9.412
			c0,0.545-0.434,0.978-0.978,0.978c-0.562,0-0.991-0.433-0.991-0.978V75.191z"/>
		<path fill="#0C0C0C" d="M156.735,76.12h-2.721c-0.514,0-0.912-0.416-0.912-0.912c0-0.497,0.398-0.913,0.912-0.913h7.442
			c0.496,0,0.896,0.416,0.896,0.913c0,0.496-0.398,0.912-0.896,0.912h-2.736v8.483c0,0.543-0.448,0.977-0.992,0.977
			c-0.545,0-0.993-0.432-0.993-0.977V76.12z"/>
		<path fill="#0C0C0C" d="M168.784,81.146l-3.857-5.299c-0.128-0.191-0.224-0.416-0.224-0.688c0-0.528,0.432-0.944,0.991-0.944
			c0.433,0,0.721,0.24,0.96,0.594l3.121,4.498l3.17-4.516c0.24-0.354,0.528-0.592,0.944-0.592c0.575,0,0.96,0.433,0.96,0.96
			c0,0.271-0.128,0.512-0.271,0.704l-3.826,5.234v3.504c0,0.545-0.433,0.979-0.992,0.979c-0.544,0-0.977-0.434-0.977-0.979
			L168.784,81.146L168.784,81.146z"/>
	</g>
	<path fill="#FFFFFF" d="M56.92,22.5c-3.36,0-6.449,0.931-9.271,2.79c-0.359,0.18-0.751,0.27-1.17,0.27
		c-1.021,0-1.711-0.479-2.069-1.44c-0.36-1.08-1.08-1.62-2.16-1.62c-1.439,0-2.19,0.751-2.25,2.25v15.648l4.622-2.777
		c0.351-2.688,1.528-5.032,3.567-7.021c2.397-2.399,5.311-3.6,8.729-3.6s6.33,1.201,8.729,3.6c2.397,2.4,3.601,5.31,3.601,8.73
		v25.92c0,1.5,0.75,2.25,2.25,2.25c1.499,0,2.25-0.75,2.25-2.25V39.33c0-4.62-1.65-8.58-4.95-11.88
		C65.5,24.151,61.539,22.5,56.92,22.5z"/>
	<path fill="#FFFFFF" d="M40,65.25c0,1.5,0.75,2.25,2.25,2.25c1.499,0,2.25-0.75,2.25-2.25V50.58v-6.002L40,47.281V65.25z"/>
	<path fill="#FFFFFF" d="M96.649,22.5h-7.83c-1.439,0-2.19-0.72-2.25-2.16V2.25C86.509,0.751,85.76,0,84.319,0
		c-1.5,0-2.25,0.751-2.25,2.25v63.42c0,2.012,4.5,2.361,4.5,0V29.25c0-1.499,0.75-2.25,2.25-2.25h7.83c1.499,0,2.25-0.75,2.25-2.25
		C98.899,23.251,98.148,22.5,96.649,22.5z"/>
	<path fill="#FFFFFF" d="M116.099,22.5c-6.062,0-10.771,2.551-14.13,7.65c-0.302,0.36-0.45,0.781-0.45,1.26
		c0,1.5,0.75,2.25,2.25,2.25c0.84,0,1.47-0.329,1.891-0.99c2.46-3.78,5.939-5.67,10.439-5.67c4.02,0,7.259,1.59,9.72,4.77
		c0.301,0.36,0.45,0.78,0.45,1.26c0,0.72-0.302,1.321-0.899,1.8l-25.11,15.21c-0.66,0.42-0.989,1.021-0.989,1.8
		c0.3,4.381,2.069,8.071,5.311,11.07c3.239,3.061,7.079,4.59,11.521,4.59c4.68,0,8.67-1.648,11.97-4.95
		c3.24-3.299,4.86-7.259,4.86-11.88V39.42c0-4.68-1.62-8.669-4.86-11.97C124.769,24.151,120.778,22.5,116.099,22.5z M128.429,50.67
		c0,3.361-1.201,6.271-3.602,8.73c-2.399,2.398-5.311,3.6-8.729,3.6c-2.7,0-5.161-0.811-7.38-2.43c-2.103-1.562-3.57-3.6-4.41-6.12
		c0-0.181,0-0.36,0-0.54c0-0.779,0.3-1.381,0.899-1.801l19.891-11.879c0.359-0.18,0.72-0.27,1.08-0.27c1.499,0,2.25,0.751,2.25,2.25
		V50.67L128.429,50.67z"/>
	<path fill="#FFFFFF" d="M156.987,22.5c-3.36,0-6.449,0.931-9.271,2.79c-0.359,0.18-0.751,0.27-1.17,0.27
		c-1.021,0-1.711-0.479-2.069-1.44c-0.359-1.08-1.08-1.62-2.16-1.62c-1.439,0-2.19,0.751-2.25,2.25v40.5c0,1.5,0.75,2.25,2.25,2.25
		c1.499,0,2.25-0.75,2.25-2.25V50.58V39.33c0-3.42,1.229-6.33,3.689-8.73c2.397-2.399,5.311-3.6,8.729-3.6s6.33,1.201,8.729,3.6
		c2.397,2.4,3.601,5.31,3.601,8.73v25.92c0,1.5,0.75,2.25,2.25,2.25c1.499,0,2.25-0.75,2.25-2.25V39.33
		c0-4.62-1.65-8.58-4.949-11.88C165.567,24.151,161.606,22.5,156.987,22.5z"/>
	<path fill="#FFFFFF" d="M212.637,22.5c-1.08,0-1.801,0.54-2.16,1.62c-0.358,0.96-1.052,1.44-2.069,1.44
		c-0.421,0-0.811-0.09-1.171-0.27c-2.819-1.859-5.909-2.79-9.271-2.79c-4.62,0-8.581,1.651-11.88,4.95
		c-3.301,3.3-4.949,7.26-4.949,11.88v11.34c0,4.621,1.648,8.581,4.949,11.88c3.299,3.302,7.26,4.95,11.88,4.95
		c3.24,0,6.239-0.869,9-2.609c0.36-0.181,0.749-0.271,1.171-0.271c1.498,0,2.25,0.751,2.25,2.25v6.3c0,3.359-1.201,6.27-3.601,8.73
		c-2.461,2.397-5.399,3.6-8.82,3.6c-4.5,0-7.979-1.921-10.439-5.76c-0.479-0.661-1.109-0.99-1.89-0.99c-1.5,0-2.25,0.75-2.25,2.25
		c0,0.479,0.148,0.93,0.449,1.35c3.358,5.101,8.101,7.65,14.221,7.65c4.618,0,8.58-1.65,11.88-4.95c3.299-3.3,4.95-7.26,4.95-11.88
		V24.75C214.887,23.251,214.136,22.5,212.637,22.5z M210.387,50.67c0,3.42-1.229,6.331-3.69,8.73c-2.399,2.398-5.31,3.6-8.729,3.6
		c-3.419,0-6.33-1.2-8.729-3.6c-2.399-2.4-3.6-5.312-3.6-8.73V39.33c0-3.42,1.198-6.33,3.6-8.73c2.399-2.399,5.312-3.6,8.729-3.6
		s6.329,1.201,8.729,3.6c2.461,2.4,3.69,5.31,3.69,8.73V50.67z"/>
	<path fill="#FFFFFF" d="M224.727,0c-1.5,0-2.25,0.751-2.25,2.25v63c0,1.5,0.75,2.25,2.25,2.25c1.499,0,2.25-0.75,2.25-2.25v-63
		C226.977,0.751,226.226,0,224.727,0z"/>
	<path fill="#FFFFFF" d="M263.186,27.09c-3.24-3.06-7.109-4.59-11.609-4.59c-4.621,0-8.581,1.651-11.881,4.95
		c-3.301,3.3-4.949,7.29-4.949,11.97v11.25c0,4.621,1.648,8.581,4.949,11.88c3.3,3.302,7.26,4.95,11.881,4.95
		c6.119,0,10.828-2.549,14.13-7.65c0.3-0.359,0.45-0.779,0.45-1.26c0-1.499-0.752-2.25-2.25-2.25c-0.962,0-1.592,0.331-1.892,0.99
		c-2.461,3.779-5.938,5.67-10.438,5.67c-3.96,0-7.2-1.589-9.721-4.77c-0.24-0.36-0.359-0.779-0.359-1.26
		c0-0.722,0.3-1.32,0.899-1.802l25.021-15.12c0.659-0.479,0.99-1.109,0.99-1.89C268.104,33.781,266.365,30.091,263.186,27.09z
		 M262.465,37.89l-19.89,11.879c-0.302,0.181-0.661,0.271-1.08,0.271c-1.5,0-2.25-0.75-2.25-2.25v-8.37
		c0-3.42,1.198-6.359,3.601-8.82c2.46-2.399,5.368-3.6,8.729-3.6c2.759,0,5.22,0.81,7.38,2.43c2.16,1.561,3.63,3.6,4.41,6.12
		c0.059,0.18,0.09,0.36,0.09,0.54C263.455,36.871,263.125,37.471,262.465,37.89z"/>
	<path fill="#FFFFFF" d="M25.56,59.4c-2.397,2.397-5.311,3.6-8.729,3.6s-6.33-1.201-8.729-3.6c-2.397-2.4-3.601-5.312-3.601-8.73
		V24.75c0-1.5-0.75-2.25-2.25-2.25S0,23.25,0,24.75v25.92c0,4.62,1.65,8.58,4.95,11.88s7.261,4.95,11.88,4.95
		c3.36,0,6.449-0.932,9.271-2.79c0.359-0.181,0.751-0.271,1.17-0.271c1.021,0,1.711,0.479,2.069,1.439
		c0.36,1.08,1.08,1.62,2.16,1.62c1.439,0,2.19-0.751,2.25-2.25V51.037l-4.945,2.972C28.249,56.023,27.175,57.824,25.56,59.4z"/>
	<path fill="#FFFFFF" d="M33.75,24.75c0-1.5-0.75-2.25-2.25-2.25c-1.499,0-2.25,0.75-2.25,2.25v14.67v7.438l4.5-2.704V24.75z"/>
</g>
</svg>
