<?xml version="1.0" encoding="utf-8"?>
<!-- Generator: Adobe Illustrator 15.0.0, SVG Export Plug-In . SVG Version: 6.00 Build 0)  -->
<!DOCTYPE svg PUBLIC "-//W3C//DTD SVG 1.1//EN" "http://www.w3.org/Graphics/SVG/1.1/DTD/svg11.dtd">
<svg version="1.1" id="Layer_1" xmlns="http://www.w3.org/2000/svg" xmlns:xlink="http://www.w3.org/1999/xlink" x="0px" y="0px"
	 width="268.404px" height="90px" viewBox="0 0 268.404 90" enable-background="new 0 0 268.404 90" xml:space="preserve">
<path fill="none" d="M126.179,39.96c-0.36,0-0.72,0.09-1.08,0.27l-19.89,11.879c-0.602,0.42-0.9,1.021-0.9,1.801
	c0,0.18,0,0.359,0,0.54c0.84,2.521,2.31,4.56,4.41,6.12c2.219,1.619,4.68,2.43,7.38,2.43c3.42,0,6.329-1.2,8.729-3.6
	c2.398-2.459,3.601-5.369,3.601-8.73v-8.46C128.429,40.711,127.678,39.96,126.179,39.96z"/>
<path fill="none" d="M197.967,27c-3.42,0-6.331,1.201-8.73,3.6c-2.399,2.4-3.6,5.31-3.6,8.73v11.34c0,3.42,1.199,6.331,3.6,8.73
	c2.399,2.399,5.312,3.6,8.73,3.6s6.329-1.2,8.729-3.6c2.46-2.399,3.69-5.311,3.69-8.73V39.33c0-3.42-1.23-6.33-3.69-8.73
	C204.296,28.201,201.387,27,197.967,27z"/>
<path fill="none" d="M258.955,29.43c-2.16-1.62-4.621-2.43-7.38-2.43c-3.361,0-6.271,1.201-8.73,3.6c-2.4,2.461-3.6,5.4-3.6,8.82
	v8.37c0,1.5,0.75,2.25,2.25,2.25c0.419,0,0.778-0.09,1.08-0.271l19.89-11.879c0.66-0.419,0.99-1.02,0.99-1.8
	c0-0.18-0.031-0.36-0.091-0.54C262.585,33.03,261.115,30.991,258.955,29.43z"/>
<path fill="#C1C1C1" d="M56.92,22.5c-3.361,0-6.45,0.931-9.271,2.79c-0.359,0.18-0.751,0.27-1.17,0.27
	c-1.021,0-1.711-0.479-2.069-1.44c-0.36-1.08-1.08-1.62-2.16-1.62c-1.44,0-2.191,0.751-2.25,2.25v15.648l4.622-2.777
	c0.35-2.688,1.528-5.032,3.567-7.021c2.398-2.399,5.311-3.6,8.729-3.6s6.33,1.201,8.729,3.6c2.398,2.4,3.601,5.31,3.601,8.73v25.92
	c0,1.5,0.75,2.25,2.25,2.25c1.499,0,2.25-0.75,2.25-2.25V39.33c0-4.62-1.651-8.58-4.95-11.88C65.5,24.151,61.539,22.5,56.92,22.5z"
	/>
<path fill="#C1C1C1" d="M40,65.25c0,1.5,0.75,2.25,2.25,2.25c1.499,0,2.25-0.75,2.25-2.25V50.58v-6.002L40,47.282V65.25z"/>
<path fill="#C1C1C1" d="M96.649,22.5h-7.83c-1.439,0-2.19-0.72-2.25-2.16V2.25C86.509,0.751,85.76,0,84.319,0
	c-1.5,0-2.25,0.751-2.25,2.25v63.42c0,2.012,4.5,2.361,4.5,0V29.25c0-1.499,0.75-2.25,2.25-2.25h7.83c1.499,0,2.25-0.75,2.25-2.25
	C98.899,23.251,98.148,22.5,96.649,22.5z"/>
<path fill="#C1C1C1" d="M116.099,22.5c-6.061,0-10.771,2.551-14.13,7.65c-0.301,0.36-0.45,0.781-0.45,1.26
	c0,1.5,0.75,2.25,2.25,2.25c0.84,0,1.47-0.329,1.891-0.99c2.46-3.78,5.939-5.67,10.439-5.67c4.02,0,7.259,1.59,9.72,4.77
	c0.301,0.36,0.45,0.78,0.45,1.26c0,0.72-0.301,1.321-0.899,1.8L100.26,50.04c-0.661,0.42-0.99,1.021-0.99,1.8
	c0.3,4.381,2.07,8.071,5.311,11.07c3.239,3.061,7.079,4.59,11.521,4.59c4.68,0,8.67-1.648,11.97-4.95
	c3.24-3.299,4.86-7.259,4.86-11.88V39.42c0-4.68-1.62-8.669-4.86-11.97C124.769,24.151,120.778,22.5,116.099,22.5z M128.429,50.67
	c0,3.361-1.201,6.271-3.601,8.73c-2.4,2.399-5.311,3.6-8.729,3.6c-2.7,0-5.161-0.811-7.38-2.43c-2.102-1.561-3.57-3.6-4.41-6.12
	c0-0.181,0-0.36,0-0.54c0-0.779,0.3-1.381,0.9-1.801l19.89-11.879c0.36-0.18,0.72-0.27,1.08-0.27c1.499,0,2.25,0.751,2.25,2.25
	V50.67L128.429,50.67z"/>
<path fill="#C1C1C1" d="M156.987,22.5c-3.36,0-6.449,0.931-9.27,2.79c-0.36,0.18-0.751,0.27-1.17,0.27
	c-1.021,0-1.711-0.479-2.07-1.44c-0.359-1.08-1.08-1.62-2.16-1.62c-1.439,0-2.19,0.751-2.25,2.25v40.5c0,1.5,0.75,2.25,2.25,2.25
	c1.499,0,2.25-0.75,2.25-2.25V50.58V39.33c0-3.42,1.229-6.33,3.69-8.73c2.397-2.399,5.31-3.6,8.729-3.6s6.33,1.201,8.73,3.6
	c2.397,2.4,3.6,5.31,3.6,8.73v25.92c0,1.5,0.75,2.25,2.25,2.25c1.499,0,2.25-0.75,2.25-2.25V39.33c0-4.62-1.65-8.58-4.949-11.88
	C165.567,24.151,161.606,22.5,156.987,22.5z"/>
<path fill="#C1C1C1" d="M212.637,22.5c-1.08,0-1.8,0.54-2.16,1.62c-0.358,0.96-1.051,1.44-2.07,1.44c-0.42,0-0.81-0.09-1.17-0.27
	c-2.819-1.859-5.909-2.79-9.27-2.79c-4.621,0-8.581,1.651-11.88,4.95c-3.301,3.3-4.95,7.26-4.95,11.88v11.34
	c0,4.621,1.649,8.581,4.95,11.88c3.299,3.302,7.259,4.95,11.88,4.95c3.24,0,6.239-0.869,9-2.609c0.36-0.181,0.749-0.271,1.17-0.271
	c1.499,0,2.25,0.751,2.25,2.25v6.3c0,3.359-1.201,6.27-3.6,8.73c-2.461,2.398-5.4,3.6-8.82,3.6c-4.5,0-7.98-1.921-10.44-5.76
	c-0.479-0.661-1.109-0.99-1.89-0.99c-1.5,0-2.25,0.75-2.25,2.25c0,0.479,0.149,0.93,0.45,1.35c3.358,5.1,8.1,7.65,14.22,7.65
	c4.619,0,8.58-1.65,11.88-4.95c3.299-3.3,4.95-7.26,4.95-11.88V24.75C214.887,23.251,214.136,22.5,212.637,22.5z M210.387,50.67
	c0,3.42-1.229,6.331-3.69,8.73c-2.399,2.399-5.31,3.6-8.729,3.6s-6.331-1.2-8.73-3.6s-3.6-5.311-3.6-8.73V39.33
	c0-3.42,1.199-6.33,3.6-8.73c2.399-2.399,5.312-3.6,8.73-3.6s6.329,1.201,8.729,3.6c2.461,2.4,3.69,5.31,3.69,8.73V50.67z"/>
<path fill="#C1C1C1" d="M224.727,0c-1.5,0-2.25,0.751-2.25,2.25v63c0,1.5,0.75,2.25,2.25,2.25c1.499,0,2.25-0.75,2.25-2.25v-63
	C226.977,0.751,226.226,0,224.727,0z"/>
<path fill="#C1C1C1" d="M263.186,27.09c-3.24-3.06-7.109-4.59-11.609-4.59c-4.621,0-8.581,1.651-11.881,4.95
	c-3.301,3.3-4.949,7.29-4.949,11.97v11.25c0,4.621,1.648,8.581,4.949,11.88c3.3,3.302,7.26,4.95,11.881,4.95
	c6.119,0,10.828-2.549,14.13-7.65c0.3-0.359,0.449-0.779,0.449-1.26c0-1.499-0.751-2.25-2.25-2.25c-0.961,0-1.591,0.331-1.891,0.99
	c-2.461,3.779-5.938,5.67-10.438,5.67c-3.96,0-7.2-1.589-9.721-4.77c-0.24-0.36-0.359-0.779-0.359-1.26
	c0-0.721,0.3-1.32,0.899-1.801l25.021-15.12c0.659-0.479,0.989-1.109,0.989-1.89C268.104,33.781,266.364,30.091,263.186,27.09z
	 M262.465,37.89l-19.89,11.879c-0.302,0.181-0.661,0.271-1.08,0.271c-1.5,0-2.25-0.75-2.25-2.25v-8.37c0-3.42,1.198-6.359,3.6-8.82
	c2.46-2.399,5.369-3.6,8.73-3.6c2.759,0,5.22,0.81,7.38,2.43c2.159,1.561,3.63,3.6,4.409,6.12c0.06,0.18,0.091,0.36,0.091,0.54
	C263.455,36.871,263.125,37.471,262.465,37.89z"/>
<path fill="#C1C1C1" d="M25.56,59.4c-2.397,2.398-5.31,3.6-8.729,3.6s-6.33-1.201-8.73-3.6c-2.397-2.4-3.6-5.311-3.6-8.73V24.75
	c0-1.5-0.75-2.25-2.25-2.25S0,23.25,0,24.75v25.92c0,4.62,1.65,8.58,4.95,11.88s7.261,4.95,11.88,4.95c3.36,0,6.449-0.932,9.27-2.79
	c0.36-0.181,0.751-0.271,1.17-0.271c1.021,0,1.711,0.479,2.07,1.44c0.36,1.08,1.08,1.62,2.16,1.62c1.439,0,2.19-0.751,2.25-2.25
	V51.037l-4.946,2.972C28.249,56.023,27.175,57.824,25.56,59.4z"/>
<path fill="#C1C1C1" d="M33.75,24.75c0-1.5-0.75-2.25-2.25-2.25c-1.499,0-2.25,0.75-2.25,2.25v14.67v7.438l4.5-2.704V24.75z"/>
</svg>
