<?xml version="1.0" encoding="utf-8"?>
<!-- Generator: Adobe Illustrator 15.0.0, SVG Export Plug-In . SVG Version: 6.00 Build 0)  -->
<!DOCTYPE svg PUBLIC "-//W3C//DTD SVG 1.1//EN" "http://www.w3.org/Graphics/SVG/1.1/DTD/svg11.dtd">
<svg version="1.1" id="Layer_1" xmlns="http://www.w3.org/2000/svg" xmlns:xlink="http://www.w3.org/1999/xlink" x="0px" y="0px"
	 width="33.75px" height="45px" viewBox="0 0 33.75 45" enable-background="new 0 0 33.75 45" xml:space="preserve">
<g>
	<path fill="#DB1721" d="M33.75,2.25C33.75,0.75,33,0,31.5,0c-1.499,0-2.25,0.75-2.25,2.25v8.456l4.5-2.663V2.25z"/>
	<path fill="#DB1721" d="M4.5,2.25C4.5,0.75,3.75,0,2.25,0C0.751,0,0,0.75,0,2.25v25.92c0,0.128,0.015,0.25,0.017,0.378L4.5,25.807
		V2.25z"/>
	<path fill="#DB1721" d="M29.25,28.17c0,3.42-1.229,6.33-3.689,8.73c-2.397,2.397-5.311,3.6-8.729,3.6s-6.33-1.201-8.73-3.6
		c-1.071-1.072-1.89-2.252-2.483-3.527l-3.843,2.35c0.794,1.549,1.845,2.994,3.177,4.328C8.25,43.35,12.211,45,16.83,45
		c3.361,0,6.449-0.932,9.27-2.79c0.36-0.181,0.752-0.271,1.17-0.271c1.021,0,1.711,0.479,2.07,1.439C29.7,44.46,30.42,45,31.5,45
		c1.439,0,2.191-0.751,2.25-2.25V16.299l-4.5,2.662V28.17z"/>
</g>
</svg>
