<?xml version="1.0" encoding="utf-8"?>
<!-- Generator: Adobe Illustrator 22.1.0, SVG Export Plug-In . SVG Version: 6.00 Build 0)  -->
<svg version="1.1" id="Layer_1" xmlns="http://www.w3.org/2000/svg" xmlns:xlink="http://www.w3.org/1999/xlink" x="0px" y="0px"
	 viewBox="0 0 296.2 130.6" style="enable-background:new 0 0 296.2 130.6;" xml:space="preserve">
<style type="text/css">
	.st0{fill:#999999;}
</style>
<path class="st0" d="M58.2,22.5c-3.4,0-6.5,0.9-9.3,2.8c-0.4,0.2-0.8,0.3-1.2,0.3c-1,0-1.7-0.5-2.1-1.4c-0.4-1.1-1.1-1.6-2.2-1.6
	c-1.4,0-2.2,0.8-2.2,2.2v15.6l4.6-2.8c0.3-2.7,1.5-5,3.6-7c2.4-2.4,5.3-3.6,8.7-3.6s6.3,1.2,8.7,3.6c2.4,2.4,3.6,5.3,3.6,8.7v25.9
	c0,1.5,0.8,2.2,2.2,2.2c1.5,0,2.2-0.7,2.2-2.2V39.3c0-4.6-1.7-8.6-5-11.9C66.8,24.2,62.9,22.5,58.2,22.5z"/>
<path class="st0" d="M41.3,65.2c0,1.5,0.8,2.2,2.2,2.2c1.5,0,2.2-0.7,2.2-2.2V50.6v-6l-4.5,2.7L41.3,65.2L41.3,65.2z"/>
<path class="st0" d="M98,22.5h-7.8c-1.4,0-2.2-0.7-2.2-2.2V2.2C87.8,0.8,87.1,0,85.6,0s-2.2,0.8-2.2,2.2v63.4c0,2,4.5,2.4,4.5,0
	V29.2c0-1.5,0.8-2.2,2.2-2.2H98c1.5,0,2.2-0.7,2.2-2.2S99.5,22.5,98,22.5z"/>
<path class="st0" d="M117.4,22.5c-6.1,0-10.8,2.6-14.1,7.6c-0.3,0.4-0.5,0.8-0.5,1.3c0,1.5,0.8,2.2,2.2,2.2c0.8,0,1.5-0.3,1.9-1
	c2.5-3.8,5.9-5.7,10.4-5.7c4,0,7.3,1.6,9.7,4.8c0.3,0.4,0.5,0.8,0.5,1.3c0,0.7-0.3,1.3-0.9,1.8l-25,15.2c-0.7,0.4-1,1-1,1.8
	c0.3,4.4,2.1,8.1,5.3,11.1c3.2,3.1,7.1,4.6,11.5,4.6c4.7,0,8.7-1.6,12-5c3.2-3.3,4.9-7.3,4.9-11.9V39.4c0-4.7-1.6-8.7-4.9-12
	C126.1,24.2,122.1,22.5,117.4,22.5z M129.8,50.7c0,3.4-1.2,6.3-3.6,8.7s-5.3,3.6-8.7,3.6c-2.7,0-5.2-0.8-7.4-2.4
	c-2.1-1.6-3.6-3.6-4.4-6.1c0-0.2,0-0.4,0-0.5c0-0.8,0.3-1.4,0.9-1.8l19.9-11.9c0.4-0.2,0.7-0.3,1.1-0.3c1.5,0,2.3,0.8,2.3,2.2v8.5
	C129.9,50.7,129.8,50.7,129.8,50.7z"/>
<path class="st0" d="M158.3,22.5c-3.4,0-6.5,0.9-9.3,2.8c-0.4,0.2-0.8,0.3-1.2,0.3c-1,0-1.7-0.5-2.1-1.4c-0.4-1.1-1.1-1.6-2.2-1.6
	c-1.4,0-2.2,0.8-2.2,2.2v40.5c0,1.5,0.8,2.2,2.2,2.2c1.5,0,2.2-0.7,2.2-2.2V50.6V39.3c0-3.4,1.2-6.3,3.7-8.7
	c2.4-2.4,5.3-3.6,8.7-3.6s6.3,1.2,8.7,3.6s3.6,5.3,3.6,8.7v25.9c0,1.5,0.8,2.2,2.2,2.2c1.5,0,2.2-0.7,2.2-2.2V39.3
	c0-4.6-1.7-8.6-5-11.9C166.9,24.2,162.9,22.5,158.3,22.5z"/>
<path class="st0" d="M214,22.5c-1.1,0-1.8,0.5-2.2,1.6c-0.4,1-1.1,1.4-2.1,1.4c-0.4,0-0.8-0.1-1.2-0.3c-2.8-1.9-5.9-2.8-9.3-2.8
	c-4.6,0-8.6,1.7-11.9,5c-3.3,3.3-5,7.3-5,11.9v11.3c0,4.6,1.6,8.6,5,11.9c3.3,3.3,7.3,5,11.9,5c3.2,0,6.2-0.9,9-2.6
	c0.4-0.2,0.7-0.3,1.2-0.3c1.5,0,2.2,0.8,2.2,2.2v6.3c0,3.4-1.2,6.3-3.6,8.7c-2.5,2.4-5.4,3.6-8.8,3.6c-4.5,0-8-1.9-10.4-5.8
	c-0.5-0.7-1.1-1-1.9-1c-1.5,0-2.2,0.7-2.2,2.2c0,0.5,0.1,0.9,0.5,1.4c3.4,5.1,8.1,7.6,14.2,7.6c4.6,0,8.6-1.7,11.9-5
	c3.3-3.3,5-7.3,5-11.9V24.8C216.2,23.3,215.5,22.5,214,22.5z M211.7,50.7c0,3.4-1.2,6.3-3.7,8.7c-2.4,2.4-5.3,3.6-8.7,3.6
	s-6.3-1.2-8.7-3.6c-2.4-2.4-3.6-5.3-3.6-8.7V39.3c0-3.4,1.2-6.3,3.6-8.7c2.4-2.4,5.3-3.6,8.7-3.6s6.3,1.2,8.7,3.6
	c2.5,2.4,3.7,5.3,3.7,8.7V50.7z"/>
<path class="st0" d="M226.1,0c-1.5,0-2.2,0.8-2.2,2.2v63c0,1.5,0.8,2.2,2.2,2.2c1.5,0,2.2-0.7,2.2-2.2v-63
	C228.3,0.8,227.6,0,226.1,0z"/>
<path class="st0" d="M264.5,27.1c-3.2-3.1-7.1-4.6-11.6-4.6c-4.6,0-8.6,1.7-11.9,5c-3.3,3.3-5,7.3-5,12v11.2c0,4.6,1.6,8.6,5,11.9
	c3.3,3.3,7.3,5,11.9,5c6.1,0,10.8-2.5,14.1-7.6c0.3-0.4,0.5-0.8,0.5-1.3c0-1.5-0.8-2.2-2.2-2.2c-1,0-1.6,0.3-1.9,1
	c-2.5,3.8-5.9,5.7-10.4,5.7c-4,0-7.2-1.6-9.7-4.8c-0.2-0.4-0.4-0.8-0.4-1.3c0-0.7,0.3-1.3,0.9-1.8l25-15.1c0.7-0.5,1-1.1,1-1.9
	C269.4,33.8,267.7,30.1,264.5,27.1z M263.8,37.9l-19.9,11.9c-0.3,0.2-0.7,0.3-1.1,0.3c-1.5,0-2.2-0.7-2.2-2.2v-8.4
	c0-3.4,1.2-6.4,3.6-8.8c2.5-2.4,5.4-3.6,8.7-3.6c2.8,0,5.2,0.8,7.4,2.4c2.2,1.6,3.6,3.6,4.4,6.1c0.1,0.2,0.1,0.4,0.1,0.5
	C264.8,36.9,264.5,37.5,263.8,37.9z"/>
<path class="st0" d="M26.9,59.4c-2.4,2.4-5.3,3.6-8.7,3.6s-6.3-1.2-8.7-3.6C7,57,5.8,54.1,5.8,50.7V24.8c0-1.5-0.8-2.2-2.2-2.2
	c-1.5,0-2.2,0.7-2.2,2.2v25.9c0,4.6,1.7,8.6,5,11.9s7.3,5,11.9,5c3.4,0,6.5-0.9,9.3-2.8c0.4-0.2,0.8-0.3,1.2-0.3
	c1,0,1.7,0.5,2.1,1.4c0.4,1.1,1.1,1.6,2.2,1.6c1.4,0,2.2-0.8,2.2-2.2V51l-4.9,3C29.6,56,28.5,57.8,26.9,59.4z"/>
<path class="st0" d="M35.1,24.8c0-1.5-0.8-2.2-2.2-2.2c-1.5,0-2.2,0.7-2.2,2.2v14.7v7.4l4.5-2.7L35.1,24.8L35.1,24.8z"/>
<path class="st0" d="M268.3,72.5c0,1.5,0.8,2.2,2.2,2.2h23c1.5,0,2.2-0.8,2.2-2.2c0-1.5-0.7-2.2-2.2-2.2h-23
	C269.1,70.2,268.3,71,268.3,72.5z"/>
<g>
	<path class="st0" d="M0.1,114.3c0-0.4,0-0.9,0-1.3S0,112.1,0,111.7h1.8v1.8l0,0c0.4-0.7,1-1.2,1.7-1.5c0.7-0.4,1.4-0.5,2.1-0.5
		c0.3,0,0.7,0,1,0.1c0.4,0.1,0.7,0.2,1,0.4c0.3,0.2,0.6,0.4,0.9,0.7c0.3,0.3,0.5,0.7,0.7,1.2c0.3-0.8,0.9-1.3,1.6-1.8
		s1.5-0.7,2.3-0.7c1.5,0,2.6,0.4,3.3,1.2c0.7,0.8,1.1,1.9,1.1,3.4v7.4h-1.6v-6.8c0-1.2-0.2-2.1-0.6-2.7c-0.4-0.6-1.2-1-2.3-1
		c-0.6,0-1.1,0.1-1.5,0.4c-0.4,0.2-0.8,0.6-1,1c-0.3,0.4-0.4,0.9-0.6,1.4c-0.1,0.5-0.2,1-0.2,1.6v6.2H8v-6.8c0-1.2-0.2-2.1-0.6-2.7
		s-1.2-1-2.3-1c-0.1,0-0.3,0-0.7,0.1c-0.4,0.1-0.7,0.2-1.1,0.6c-0.4,0.3-0.7,0.8-1,1.3c-0.3,0.6-0.5,1.4-0.5,2.5v6H0.1V114.3z"/>
	<path class="st0" d="M28.9,116.2v-0.3c0-2-1-3-3-3c-1.4,0-2.6,0.5-3.6,1.4l-1-1.2c1.1-1.1,2.8-1.7,4.9-1.7c0.6,0,1.1,0.1,1.6,0.2
		c0.5,0.2,1,0.4,1.4,0.8s0.7,0.8,0.9,1.3c0.2,0.5,0.4,1.1,0.4,1.9v5.2c0,0.5,0,0.9,0.1,1.4c0,0.5,0.1,0.9,0.1,1.2h-1.6
		c0-0.3-0.1-0.6-0.1-0.9s0-0.7,0-1l0,0c-0.5,0.8-1.1,1.3-1.7,1.7c-0.7,0.3-1.5,0.5-2.4,0.5c-0.5,0-1-0.1-1.5-0.2s-0.9-0.4-1.3-0.7
		c-0.4-0.3-0.7-0.7-0.9-1.1s-0.3-0.9-0.3-1.5c0-1,0.2-1.7,0.7-2.2s1.1-0.9,1.9-1.2c0.7-0.3,1.5-0.4,2.4-0.5c0.8-0.1,1.6-0.1,2.3-0.1
		L28.9,116.2L28.9,116.2z M28.1,117.5c-0.4,0-0.9,0-1.6,0.1c-0.6,0-1.2,0.1-1.8,0.3c-0.6,0.2-1.1,0.4-1.5,0.7
		c-0.4,0.3-0.6,0.8-0.6,1.4c0,0.4,0.1,0.7,0.2,1c0.2,0.3,0.4,0.5,0.6,0.7s0.6,0.3,0.9,0.4s0.7,0.1,1,0.1c0.6,0,1.1-0.1,1.6-0.3
		c0.4-0.2,0.8-0.5,1.1-0.8c0.3-0.3,0.5-0.7,0.7-1.2c0.1-0.5,0.2-0.9,0.2-1.5v-0.9C28.9,117.5,28.1,117.5,28.1,117.5z"/>
	<path class="st0" d="M36.1,116.9l5.5-5.3h2.5l-5.8,5.4l6.5,6.3h-2.6l-6.1-6.2v6.2h-1.7v-18.9h1.7C36.1,104.4,36.1,116.9,36.1,116.9
		z"/>
	<path class="st0" d="M48.9,107.2c0,0.4-0.1,0.6-0.4,0.9c-0.2,0.2-0.5,0.3-0.8,0.3s-0.6-0.1-0.8-0.3c-0.2-0.2-0.4-0.5-0.4-0.9
		c0-0.3,0.1-0.6,0.4-0.9s0.5-0.3,0.8-0.3s0.6,0.1,0.8,0.3S48.9,106.8,48.9,107.2z M48.5,123.4h-1.7v-11.7h1.7V123.4z"/>
	<path class="st0" d="M54,111.7c0,0.3,0.1,0.6,0.1,0.9s0,0.6,0,0.9l0,0c0.2-0.3,0.4-0.6,0.7-0.9s0.6-0.5,0.9-0.7
		c0.4-0.2,0.7-0.3,1.1-0.5c0.4-0.1,0.8-0.2,1.2-0.2c1.5,0,2.6,0.4,3.3,1.2c0.7,0.8,1.1,1.9,1.1,3.4v7.4h-1.7v-6.5
		c0-1.3-0.2-2.3-0.7-3s-1.3-1-2.5-1c-0.1,0-0.3,0-0.7,0.1s-0.8,0.2-1.2,0.6c-0.4,0.3-0.8,0.8-1.1,1.3c-0.3,0.6-0.5,1.4-0.5,2.5v6
		h-1.7v-9.1c0-0.3,0-0.7,0-1.2s-0.1-0.9-0.1-1.4H54V111.7z"/>
	<path class="st0" d="M67.2,125.7c0.5,0.7,1.1,1.2,1.9,1.6s1.6,0.6,2.6,0.6c0.8,0,1.5-0.1,2.1-0.4c0.6-0.2,1.1-0.6,1.4-1
		c0.4-0.4,0.6-0.9,0.8-1.5s0.2-1.2,0.2-1.8v-2.1h-0.1c-0.5,0.8-1.2,1.4-1.9,1.7c-0.8,0.3-1.6,0.5-2.4,0.5s-1.6-0.2-2.4-0.5
		c-0.7-0.3-1.4-0.7-1.9-1.2c-0.6-0.5-1-1.2-1.3-1.9s-0.5-1.5-0.5-2.4c0-0.8,0.1-1.6,0.4-2.4c0.3-0.7,0.7-1.4,1.2-1.9s1.1-1,1.9-1.3
		c0.7-0.3,1.5-0.5,2.4-0.5c0.4,0,0.7,0,1.1,0.1s0.8,0.2,1.2,0.4s0.8,0.4,1.2,0.7c0.4,0.3,0.7,0.7,1.1,1.1h0.1v-2h1.6v11.6
		c0,0.6-0.1,1.3-0.2,2c-0.2,0.7-0.5,1.4-0.9,2c-0.5,0.6-1.1,1.1-1.9,1.5s-1.9,0.6-3.2,0.6c-1.2,0-2.2-0.2-3.1-0.6
		c-0.9-0.4-1.8-1-2.5-1.8L67.2,125.7z M67.5,117.4c0,0.6,0.1,1.2,0.3,1.7c0.2,0.5,0.5,1,0.9,1.4s0.8,0.7,1.4,1
		c0.5,0.2,1.1,0.4,1.7,0.4s1.2-0.1,1.7-0.3c0.5-0.2,1-0.5,1.4-0.9s0.7-0.9,1-1.4c0.2-0.5,0.3-1.2,0.3-1.8c0-0.6-0.1-1.2-0.3-1.7
		c-0.2-0.5-0.5-1-0.9-1.4s-0.9-0.7-1.4-1c-0.6-0.2-1.2-0.4-1.9-0.4c-0.6,0-1.2,0.1-1.7,0.4c-0.5,0.2-1,0.6-1.4,1s-0.7,0.9-0.9,1.4
		S67.5,116.8,67.5,117.4z"/>
	<path class="st0" d="M88.6,104.5h1.7v9.2l0,0c0.3-0.4,0.6-0.7,1-1s0.8-0.5,1.1-0.7s0.8-0.3,1.2-0.4c0.4-0.1,0.8-0.1,1.2-0.1
		c0.9,0,1.8,0.2,2.5,0.5c0.8,0.3,1.4,0.7,2,1.3c0.6,0.5,1,1.2,1.3,2s0.5,1.6,0.5,2.5s-0.2,1.7-0.5,2.4c-0.3,0.8-0.7,1.4-1.3,2
		c-0.5,0.5-1.2,1-2,1.3s-1.6,0.5-2.5,0.5c-0.4,0-0.8,0-1.2-0.1c-0.4-0.1-0.8-0.2-1.2-0.4s-0.8-0.4-1.1-0.7c-0.4-0.3-0.7-0.6-1-1l0,0
		v2h-1.7V104.5z M99.2,117.5c0-0.7-0.1-1.3-0.3-1.8c-0.2-0.6-0.5-1.1-0.9-1.5s-0.8-0.7-1.4-1c-0.5-0.2-1.2-0.4-1.8-0.4
		s-1.3,0.1-1.9,0.4c-0.6,0.2-1.1,0.6-1.5,1s-0.7,0.9-1,1.5c-0.2,0.6-0.4,1.2-0.4,1.8c0,0.6,0.1,1.3,0.4,1.8c0.2,0.6,0.6,1.1,1,1.5
		s0.9,0.7,1.5,1c0.6,0.2,1.2,0.4,1.9,0.4s1.3-0.1,1.8-0.4c0.5-0.2,1-0.6,1.4-1s0.7-0.9,0.9-1.5C99.1,118.8,99.2,118.2,99.2,117.5z"
		/>
	<path class="st0" d="M112.3,123.4c0-0.3-0.1-0.6-0.1-0.9s0-0.6,0-0.9l0,0c-0.2,0.3-0.4,0.6-0.7,0.9s-0.6,0.5-0.9,0.7
		s-0.7,0.3-1.1,0.5s-0.8,0.2-1.2,0.2c-1.5,0-2.6-0.4-3.3-1.2c-0.7-0.8-1.1-1.9-1.1-3.4v-7.4h1.7v6.5c0,0.6,0,1.2,0.1,1.7
		s0.3,0.9,0.5,1.3s0.6,0.6,1,0.8c0.4,0.2,0.9,0.3,1.5,0.3c0.1,0,0.3,0,0.7-0.1c0.4-0.1,0.8-0.2,1.2-0.5c0.4-0.3,0.8-0.8,1.1-1.4
		c0.3-0.6,0.5-1.4,0.5-2.5v-6h1.7v9.1c0,0.3,0,0.7,0,1.2s0.1,0.9,0.1,1.4h-1.7C112.3,123.7,112.3,123.4,112.3,123.4z"/>
	<path class="st0" d="M123.9,114.4c-0.2-0.5-0.6-0.9-1-1.2c-0.4-0.3-0.9-0.4-1.5-0.4c-0.3,0-0.6,0-0.9,0.1s-0.6,0.2-0.8,0.3
		c-0.2,0.1-0.4,0.3-0.6,0.5c-0.1,0.2-0.2,0.5-0.2,0.8c0,0.5,0.2,1,0.6,1.2s1,0.5,1.7,0.6l1.7,0.4c0.8,0.2,1.5,0.6,2,1.1
		c0.5,0.6,0.8,1.3,0.8,2.1c0,0.6-0.1,1.2-0.4,1.6c-0.3,0.5-0.6,0.8-1,1.1c-0.4,0.3-0.9,0.5-1.5,0.6c-0.5,0.1-1.1,0.2-1.7,0.2
		c-0.9,0-1.7-0.2-2.5-0.5s-1.4-0.9-2-1.8l1.4-1c0.3,0.5,0.8,1,1.3,1.3s1.1,0.5,1.8,0.5c0.3,0,0.7,0,1-0.1s0.6-0.2,0.9-0.3
		s0.5-0.4,0.6-0.6c0.2-0.2,0.2-0.5,0.2-0.9c0-0.6-0.2-1-0.7-1.3c-0.4-0.3-1-0.5-1.6-0.6l-1.6-0.4c-0.2,0-0.5-0.1-0.8-0.2
		s-0.7-0.3-1-0.5s-0.6-0.5-0.8-0.9c-0.2-0.4-0.4-0.8-0.4-1.4s0.1-1.1,0.4-1.6s0.6-0.8,1-1.1c0.4-0.3,0.9-0.5,1.4-0.6s1-0.2,1.6-0.2
		c0.8,0,1.6,0.2,2.3,0.5c0.7,0.3,1.2,0.9,1.6,1.6L123.9,114.4z"/>
	<path class="st0" d="M130.8,107.2c0,0.4-0.1,0.6-0.4,0.9c-0.2,0.2-0.5,0.3-0.8,0.3s-0.6-0.1-0.8-0.3c-0.2-0.2-0.4-0.5-0.4-0.9
		c0-0.3,0.1-0.6,0.4-0.9s0.5-0.3,0.8-0.3s0.6,0.1,0.8,0.3S130.8,106.8,130.8,107.2z M130.4,123.4h-1.7v-11.7h1.7V123.4z"/>
	<path class="st0" d="M136,111.7c0,0.3,0.1,0.6,0.1,0.9s0,0.6,0,0.9l0,0c0.2-0.3,0.4-0.6,0.7-0.9s0.6-0.5,0.9-0.7
		c0.4-0.2,0.7-0.3,1.1-0.5c0.4-0.1,0.8-0.2,1.2-0.2c1.5,0,2.6,0.4,3.3,1.2c0.7,0.8,1.1,1.9,1.1,3.4v7.4h-1.7v-6.5
		c0-1.3-0.2-2.3-0.7-3s-1.3-1-2.5-1c-0.1,0-0.3,0-0.7,0.1s-0.8,0.2-1.2,0.6c-0.4,0.3-0.8,0.8-1.1,1.3c-0.3,0.6-0.5,1.4-0.5,2.5v6
		h-1.7v-9.1c0-0.3,0-0.7,0-1.2s-0.1-0.9-0.1-1.4h1.8L136,111.7L136,111.7z"/>
	<path class="st0" d="M149.4,118c0,0.6,0.2,1.1,0.4,1.7s0.5,1,0.9,1.3s0.8,0.7,1.3,0.9c0.5,0.2,1,0.3,1.6,0.3c0.9,0,1.6-0.2,2.3-0.6
		c0.6-0.4,1.1-0.9,1.5-1.4l1.3,1c-0.7,0.9-1.5,1.5-2.3,1.9s-1.7,0.6-2.7,0.6c-0.9,0-1.7-0.2-2.4-0.5s-1.4-0.7-1.9-1.3s-1-1.2-1.3-2
		s-0.5-1.6-0.5-2.4c0-0.9,0.1-1.7,0.4-2.5c0.3-0.8,0.7-1.4,1.2-2c0.5-0.5,1.2-1,1.9-1.3s1.5-0.5,2.3-0.5c0.9,0,1.7,0.2,2.4,0.5
		s1.3,0.7,1.8,1.3c0.5,0.5,0.8,1.1,1.1,1.9c0.2,0.7,0.4,1.5,0.4,2.3v0.8C159.1,118,149.4,118,149.4,118z M157.4,116.6
		c0-1.1-0.3-2-1-2.7s-1.6-1-2.8-1c-0.5,0-1.1,0.1-1.6,0.3c-0.5,0.2-0.9,0.5-1.3,0.8c-0.4,0.3-0.7,0.8-0.9,1.2
		c-0.2,0.5-0.3,0.9-0.3,1.4C149.5,116.6,157.4,116.6,157.4,116.6z"/>
	<path class="st0" d="M168.4,114.4c-0.2-0.5-0.6-0.9-1-1.2c-0.4-0.3-0.9-0.4-1.5-0.4c-0.3,0-0.6,0-0.9,0.1c-0.3,0.1-0.6,0.2-0.8,0.3
		c-0.2,0.1-0.4,0.3-0.6,0.5s-0.2,0.5-0.2,0.8c0,0.5,0.2,1,0.6,1.2s1,0.5,1.7,0.6l1.7,0.4c0.8,0.2,1.5,0.6,2,1.1
		c0.5,0.6,0.8,1.3,0.8,2.1c0,0.6-0.1,1.2-0.4,1.6c-0.3,0.5-0.6,0.8-1,1.1c-0.4,0.3-0.9,0.5-1.5,0.6c-0.5,0.1-1.1,0.2-1.7,0.2
		c-0.9,0-1.7-0.2-2.5-0.5s-1.4-0.9-2-1.8l1.4-1c0.3,0.5,0.8,1,1.3,1.3s1.1,0.5,1.8,0.5c0.3,0,0.7,0,1-0.1s0.6-0.2,0.9-0.3
		c0.3-0.2,0.5-0.4,0.6-0.6c0.2-0.2,0.2-0.5,0.2-0.9c0-0.6-0.2-1-0.7-1.3c-0.4-0.3-1-0.5-1.6-0.6l-1.6-0.4c-0.2,0-0.5-0.1-0.8-0.2
		s-0.7-0.3-1-0.5s-0.6-0.5-0.8-0.9s-0.4-0.8-0.4-1.4s0.1-1.1,0.4-1.6c0.2-0.5,0.6-0.8,1-1.1c0.4-0.3,0.9-0.5,1.4-0.6s1-0.2,1.6-0.2
		c0.8,0,1.6,0.2,2.3,0.5s1.2,0.9,1.6,1.6L168.4,114.4z"/>
	<path class="st0" d="M179,114.4c-0.2-0.5-0.6-0.9-1-1.2c-0.4-0.3-0.9-0.4-1.5-0.4c-0.3,0-0.6,0-0.9,0.1c-0.3,0.1-0.6,0.2-0.8,0.3
		c-0.2,0.1-0.4,0.3-0.6,0.5c-0.1,0.2-0.2,0.5-0.2,0.8c0,0.5,0.2,1,0.6,1.2c0.4,0.2,1,0.5,1.7,0.6l1.7,0.4c0.8,0.2,1.5,0.6,2,1.1
		c0.5,0.6,0.8,1.3,0.8,2.1c0,0.6-0.1,1.2-0.4,1.6c-0.3,0.5-0.6,0.8-1,1.1c-0.4,0.3-0.9,0.5-1.5,0.6c-0.5,0.1-1.1,0.2-1.7,0.2
		c-0.9,0-1.7-0.2-2.5-0.5s-1.4-0.9-2-1.8l1.4-1c0.3,0.5,0.8,1,1.3,1.3s1.1,0.5,1.8,0.5c0.3,0,0.7,0,1-0.1s0.6-0.2,0.9-0.3
		c0.3-0.2,0.5-0.4,0.6-0.6s0.2-0.5,0.2-0.9c0-0.6-0.2-1-0.7-1.3c-0.4-0.3-1-0.5-1.6-0.6l-1.6-0.4c-0.2,0-0.5-0.1-0.8-0.2
		s-0.7-0.3-1-0.5s-0.6-0.5-0.8-0.9s-0.3-0.8-0.3-1.4s0.1-1.1,0.4-1.6c0.2-0.5,0.6-0.8,1-1.1c0.4-0.3,0.9-0.5,1.4-0.6s1-0.2,1.6-0.2
		c0.8,0,1.6,0.2,2.3,0.5s1.2,0.9,1.6,1.6L179,114.4z"/>
	<path class="st0" d="M186.5,122.2c0,0.4-0.1,0.7-0.4,0.9c-0.2,0.3-0.6,0.4-1,0.4s-0.7-0.1-1-0.4c-0.2-0.3-0.4-0.6-0.4-0.9
		s0.1-0.7,0.4-0.9c0.2-0.3,0.6-0.4,1-0.4s0.7,0.1,1,0.4C186.4,121.5,186.5,121.8,186.5,122.2z"/>
	<path class="st0" d="M197.4,111.7h1.7v2l0,0c0.3-0.4,0.6-0.7,1-1s0.8-0.5,1.1-0.7c0.4-0.2,0.8-0.3,1.2-0.4s0.8-0.1,1.2-0.1
		c0.9,0,1.8,0.2,2.5,0.5c0.8,0.3,1.4,0.7,2,1.3s1,1.2,1.3,2s0.5,1.6,0.5,2.5s-0.2,1.7-0.5,2.4s-0.7,1.4-1.3,2s-1.2,1-2,1.3
		s-1.6,0.5-2.5,0.5c-0.4,0-0.8,0-1.2-0.1s-0.8-0.2-1.2-0.4c-0.4-0.2-0.8-0.4-1.1-0.7c-0.4-0.3-0.7-0.6-1-1l0,0v9.2h-1.7V111.7z
		 M208.1,117.5c0-0.7-0.1-1.3-0.3-1.8c-0.2-0.6-0.5-1.1-0.9-1.5s-0.8-0.7-1.4-1c-0.5-0.2-1.2-0.4-1.8-0.4s-1.3,0.1-1.9,0.4
		c-0.6,0.2-1.1,0.6-1.5,1s-0.7,0.9-1,1.5s-0.3,1.2-0.3,1.8c0,0.6,0.1,1.3,0.3,1.8c0.2,0.6,0.6,1.1,1,1.5s0.9,0.7,1.5,1
		c0.6,0.2,1.2,0.4,1.9,0.4s1.3-0.1,1.8-0.4c0.5-0.2,1-0.6,1.4-1s0.7-0.9,0.9-1.5C208,118.8,208.1,118.2,208.1,117.5z"/>
	<path class="st0" d="M213.8,118c0,0.6,0.2,1.1,0.4,1.7s0.5,1,0.9,1.3s0.8,0.7,1.3,0.9c0.5,0.2,1,0.3,1.6,0.3c0.9,0,1.6-0.2,2.3-0.6
		s1.1-0.9,1.5-1.4l1.3,1c-0.7,0.9-1.5,1.5-2.3,1.9s-1.7,0.6-2.7,0.6c-0.9,0-1.7-0.2-2.4-0.5s-1.4-0.7-1.9-1.3s-1-1.2-1.3-2
		s-0.5-1.6-0.5-2.4c0-0.9,0.1-1.7,0.5-2.5c0.3-0.8,0.7-1.4,1.2-2c0.5-0.5,1.2-1,1.9-1.3s1.5-0.5,2.3-0.5c0.9,0,1.7,0.2,2.4,0.5
		s1.3,0.7,1.8,1.3c0.5,0.5,0.8,1.1,1.1,1.9c0.2,0.7,0.4,1.5,0.4,2.3v0.8C223.6,118,213.8,118,213.8,118z M221.8,116.6
		c0-1.1-0.3-2-1-2.7s-1.6-1-2.8-1c-0.5,0-1,0.1-1.5,0.3c-0.5,0.2-0.9,0.5-1.3,0.8c-0.4,0.3-0.7,0.8-0.9,1.2
		c-0.2,0.5-0.3,0.9-0.3,1.4C214,116.6,221.8,116.6,221.8,116.6z"/>
	<path class="st0" d="M226.7,115.3c0-0.5,0-1,0-1.6s0-1.2-0.1-2.1h1.6v2.2l0,0c0.1-0.3,0.3-0.6,0.5-0.9s0.5-0.6,0.8-0.8
		c0.3-0.2,0.7-0.4,1.1-0.6s0.9-0.2,1.4-0.2s0.9,0,1.2,0.2l-0.3,1.6c-0.2-0.1-0.5-0.1-1-0.1c-0.6,0-1.2,0.1-1.6,0.4s-0.8,0.5-1.1,0.9
		s-0.5,0.8-0.7,1.2c-0.1,0.4-0.2,0.8-0.2,1.2v6.6h-1.7v-8C226.6,115.3,226.7,115.3,226.7,115.3z"/>
	<path class="st0" d="M241.1,114.4c-0.2-0.5-0.6-0.9-1-1.2c-0.4-0.3-0.9-0.4-1.5-0.4c-0.3,0-0.6,0-0.9,0.1c-0.3,0.1-0.6,0.2-0.8,0.3
		c-0.2,0.1-0.4,0.3-0.6,0.5s-0.2,0.5-0.2,0.8c0,0.5,0.2,1,0.6,1.2c0.4,0.2,1,0.5,1.7,0.6l1.7,0.4c0.8,0.2,1.5,0.6,2,1.1
		c0.5,0.6,0.8,1.3,0.8,2.1c0,0.6-0.1,1.2-0.4,1.6c-0.3,0.5-0.6,0.8-1,1.1c-0.4,0.3-0.9,0.5-1.5,0.6c-0.5,0.1-1.1,0.2-1.7,0.2
		c-0.9,0-1.7-0.2-2.5-0.5s-1.4-0.9-2-1.8l1.4-1c0.3,0.5,0.8,1,1.3,1.3s1.1,0.5,1.8,0.5c0.3,0,0.7,0,1-0.1s0.6-0.2,0.9-0.3
		c0.3-0.2,0.5-0.4,0.6-0.6c0.2-0.2,0.2-0.5,0.2-0.9c0-0.6-0.2-1-0.7-1.3c-0.4-0.3-1-0.5-1.6-0.6l-1.6-0.4c-0.2,0-0.5-0.1-0.8-0.2
		s-0.7-0.3-1-0.5s-0.6-0.5-0.8-0.9s-0.3-0.8-0.3-1.4s0.1-1.1,0.4-1.6s0.6-0.8,1-1.1c0.4-0.3,0.9-0.5,1.4-0.6s1.1-0.2,1.6-0.2
		c0.8,0,1.6,0.2,2.3,0.5s1.2,0.9,1.6,1.6L241.1,114.4z"/>
	<path class="st0" d="M257.3,117.5c0,0.9-0.2,1.7-0.5,2.4s-0.7,1.4-1.3,2s-1.2,1-2,1.3s-1.6,0.5-2.5,0.5s-1.7-0.2-2.5-0.5
		s-1.4-0.7-2-1.3s-1-1.2-1.3-2s-0.5-1.6-0.5-2.4c0-0.9,0.2-1.7,0.5-2.5s0.7-1.4,1.3-2s1.2-1,2-1.3s1.6-0.5,2.5-0.5s1.8,0.2,2.5,0.5
		c0.8,0.3,1.4,0.7,2,1.3c0.6,0.6,1,1.2,1.3,2S257.3,116.6,257.3,117.5z M255.5,117.5c0-0.7-0.1-1.3-0.3-1.8
		c-0.2-0.6-0.5-1.1-0.9-1.5s-0.8-0.7-1.4-1c-0.5-0.2-1.2-0.4-1.8-0.4c-0.7,0-1.3,0.1-1.8,0.4c-0.5,0.2-1,0.6-1.4,1s-0.7,0.9-0.9,1.5
		s-0.3,1.2-0.3,1.8c0,0.6,0.1,1.3,0.3,1.8c0.2,0.6,0.5,1.1,0.9,1.5s0.8,0.7,1.4,1c0.5,0.2,1.2,0.4,1.8,0.4c0.7,0,1.3-0.1,1.8-0.4
		c0.5-0.2,1-0.6,1.4-1s0.7-0.9,0.9-1.5C255.4,118.8,255.5,118.2,255.5,117.5z"/>
	<path class="st0" d="M261.9,111.7c0,0.3,0.1,0.6,0.1,0.9s0,0.6,0,0.9l0,0c0.2-0.3,0.4-0.6,0.7-0.9c0.3-0.3,0.6-0.5,1-0.7
		c0.3-0.2,0.7-0.3,1.1-0.5c0.4-0.1,0.8-0.2,1.2-0.2c1.5,0,2.6,0.4,3.3,1.2c0.7,0.8,1.1,1.9,1.1,3.4v7.4h-1.7v-6.5
		c0-1.3-0.2-2.3-0.7-3s-1.3-1-2.5-1c-0.1,0-0.3,0-0.7,0.1c-0.4,0.1-0.8,0.2-1.2,0.6c-0.4,0.3-0.8,0.8-1.1,1.3
		c-0.3,0.6-0.5,1.4-0.5,2.5v6h-1.7v-9.1c0-0.3,0-0.7,0-1.2s-0.1-0.9-0.1-1.4h1.7L261.9,111.7L261.9,111.7z"/>
	<path class="st0" d="M281.7,116.2v-0.3c0-2-1-3-3-3c-1.4,0-2.6,0.5-3.6,1.4l-1-1.2c1.1-1.1,2.8-1.7,5-1.7c0.6,0,1.1,0.1,1.6,0.2
		c0.5,0.2,1,0.4,1.4,0.8s0.7,0.8,0.9,1.3s0.4,1.1,0.4,1.9v5.2c0,0.5,0,0.9,0.1,1.4c0,0.5,0.1,0.9,0.1,1.2H282c0-0.3-0.1-0.6-0.1-0.9
		s0-0.7,0-1h-0.1c-0.5,0.8-1.1,1.3-1.7,1.7c-0.7,0.3-1.5,0.5-2.4,0.5c-0.5,0-1-0.1-1.5-0.2s-0.9-0.4-1.3-0.7
		c-0.4-0.3-0.7-0.7-0.9-1.1c-0.2-0.4-0.3-0.9-0.3-1.5c0-1,0.2-1.7,0.7-2.2s1.1-0.9,1.8-1.2c0.7-0.3,1.5-0.4,2.4-0.5
		c0.8-0.1,1.6-0.1,2.3-0.1L281.7,116.2L281.7,116.2z M280.9,117.5c-0.4,0-0.9,0-1.6,0.1c-0.6,0-1.2,0.1-1.8,0.3
		c-0.6,0.2-1.1,0.4-1.5,0.7c-0.4,0.3-0.6,0.8-0.6,1.4c0,0.4,0.1,0.7,0.2,1c0.2,0.3,0.4,0.5,0.6,0.7s0.6,0.3,0.9,0.4s0.7,0.1,1,0.1
		c0.6,0,1.1-0.1,1.6-0.3s0.8-0.5,1.1-0.8s0.5-0.7,0.7-1.2c0.1-0.5,0.2-0.9,0.2-1.5v-0.9C281.7,117.5,280.9,117.5,280.9,117.5z"/>
	<path class="st0" d="M289.2,123.4h-1.7v-18.9h1.7V123.4z"/>
	<path class="st0" d="M296.2,122.2c0,0.4-0.1,0.7-0.4,0.9c-0.2,0.3-0.6,0.4-1,0.4s-0.7-0.1-1-0.4c-0.2-0.3-0.4-0.6-0.4-0.9
		s0.1-0.7,0.4-0.9c0.2-0.3,0.6-0.4,1-0.4s0.7,0.1,1,0.4C296.1,121.5,296.2,121.8,296.2,122.2z"/>
</g>
</svg>
