<?xml version="1.0" encoding="utf-8"?>
<!-- Generator: Adobe Illustrator 15.0.0, SVG Export Plug-In . SVG Version: 6.00 Build 0)  -->
<!DOCTYPE svg PUBLIC "-//W3C//DTD SVG 1.1//EN" "http://www.w3.org/Graphics/SVG/1.1/DTD/svg11.dtd">
<svg version="1.1" id="Layer_1" xmlns="http://www.w3.org/2000/svg" xmlns:xlink="http://www.w3.org/1999/xlink" x="0px" y="0px"
	 width="512px" height="512px" viewBox="0 0 512 512" enable-background="new 0 0 512 512" xml:space="preserve">
<rect x="251.467" y="4" fill="#DB1721" stroke="#DB1721" stroke-width="2" stroke-miterlimit="10" width="9.066" height="43.2"/>
<rect x="434.918" y="46.383" transform="matrix(0.7071 0.7071 -0.7071 0.7071 179.9975 -289.4807)" fill="#DB1721" stroke="#DB1721" stroke-width="2" stroke-miterlimit="10" width="9.066" height="52.329"/>
<rect x="46.362" y="67.994" transform="matrix(0.7071 0.7071 -0.7071 0.7071 72.5274 -30.0416)" fill="#DB1721" stroke="#DB1721" stroke-width="2" stroke-miterlimit="10" width="52.329" height="9.067"/>
<rect x="67.986" y="413.266" transform="matrix(-0.7072 -0.7071 0.7071 -0.7072 -186.8994 801.4529)" fill="#DB1721" stroke="#DB1721" stroke-width="2" stroke-miterlimit="10" width="9.066" height="52.329"/>
<path fill="#DB1721" stroke="#DB1721" stroke-width="2" stroke-miterlimit="10" d="M478.262,236.005l-2.907-1.86l1.415-3.148
	c3.736-8.316,5.631-17.13,5.631-26.197c0-35.437-28.83-64.267-64.267-64.267c-4.096,0-8.228,0.403-12.278,1.197l-3.313,0.649
	l-1.196-3.157c-9.523-25.123-33.08-41.355-60.013-41.355c-9.067,0-17.881,1.894-26.195,5.63l-3.149,1.415l-1.86-2.909
	C298.399,83.661,277.658,72.266,256,72.266c-21.659,0-42.399,11.395-54.127,29.737l-1.86,2.909l-3.149-1.415
	c-8.315-3.736-17.129-5.63-26.197-5.63c-26.933,0-50.489,16.233-60.012,41.355l-1.197,3.157l-3.313-0.649
	c-4.051-0.794-8.182-1.197-12.278-1.197c-35.437,0-64.267,28.83-64.267,64.267c0,9.068,1.895,17.882,5.63,26.196l1.415,3.148
	l-2.908,1.86C15.395,247.742,4,268.483,4,290.134C4,325.57,32.83,354.4,68.267,354.4h137.341l-2.738,5.726
	c-1.728,3.613-2.604,7.339-2.604,11.074c0,6.983,2.778,13.543,7.823,18.472l2.929,2.861l-2.929,2.861
	c-5.045,4.929-7.824,11.489-7.824,18.473s2.778,13.543,7.823,18.472l2.929,2.861l-2.929,2.861
	c-5.045,4.929-7.824,11.489-7.824,18.473c0,13.165,9.946,24.16,23.136,25.573l2.778,0.298l0.676,2.711
	c3.363,13.475,15.347,22.885,29.143,22.885s25.78-9.41,29.143-22.885l0.677-2.711l2.777-0.298
	c13.19-1.413,23.137-12.408,23.137-25.573c0-6.983-2.778-13.544-7.823-18.473l-2.93-2.861l2.93-2.861
	c5.045-4.928,7.823-11.488,7.823-18.472s-2.778-13.544-7.823-18.473l-2.93-2.861l2.93-2.861c5.045-4.928,7.823-11.488,7.823-18.472
	c0-3.735-0.876-7.461-2.604-11.074l-2.738-5.726h56.057l0.359,3.604c4.159,41.729,38.95,73.196,80.926,73.196
	c2.5,0,4.533-2.033,4.533-4.533v-72.326l3.502-0.438c32.058-4.02,56.231-31.435,56.231-63.769
	C508,268.483,496.605,247.742,478.262,236.005z M274.149,488.415c-3.783,6.488-10.738,10.519-18.149,10.519
	c-7.412,0-14.366-4.03-18.15-10.519l-3.508-6.015h43.315L274.149,488.415z M302.667,456.534c0,9.264-7.536,16.8-16.8,16.8h-59.734
	c-9.264,0-16.8-7.536-16.8-16.8s7.536-16.801,16.8-16.801h59.734C295.131,439.733,302.667,447.27,302.667,456.534z M302.667,413.867
	c0,9.264-7.536,16.8-16.8,16.8h-59.734c-9.264,0-16.8-7.536-16.8-16.8s7.536-16.8,16.8-16.8h59.734
	C295.131,397.067,302.667,404.603,302.667,413.867z M285.867,388h-59.734c-9.264,0-16.8-7.536-16.8-16.8s7.536-16.8,16.8-16.8
	h59.734c9.264,0,16.8,7.536,16.8,16.8S295.131,388,285.867,388z M217.351,186.251c-0.069,0.125-0.14,0.245-0.217,0.361
	c-1.141,1.649-2.173,3.398-3.197,5.41c-0.228,0.441-0.422,0.861-0.616,1.288c-0.93,1.983-1.646,3.771-2.207,5.503
	c-0.027,0.095-0.093,0.277-0.163,0.459c-0.561,1.796-1.025,3.807-1.423,6.147c-0.085,0.492-0.153,0.966-0.213,1.448
	c-0.351,2.412-0.516,4.501-0.516,6.467c0,12.741,5.029,24.691,14.162,33.649c0.856,0.843,1.981,1.305,3.172,1.305
	s2.315-0.461,3.167-1.299c9.138-8.964,14.167-20.914,14.167-33.655c0-1.946-0.156-3.988-0.492-6.426
	c-0.072-0.513-0.145-1.026-0.227-1.54c-0.388-2.284-0.854-4.296-1.415-6.109c-0.071-0.177-0.135-0.355-0.189-0.537
	c-0.536-1.653-1.252-3.44-2.163-5.382l-0.144-0.305c-0.166-0.352-0.33-0.699-0.503-1.047c-1.021-1.99-2.057-3.746-3.148-5.333
	c-0.061-0.091-0.11-0.168-0.153-0.24l-2.589-3.353l3.805-2.327c5.812-3.554,12.645-5.433,19.761-5.433
	c7.115,0,13.95,1.878,19.766,5.432l3.53,2.157l-2.212,3.359c-0.088,0.155-0.182,0.304-0.286,0.451
	c-1.089,1.575-2.111,3.312-3.128,5.31c-0.229,0.443-0.423,0.862-0.617,1.287c-0.93,1.983-1.645,3.771-2.206,5.504
	c-0.027,0.096-0.094,0.28-0.165,0.464c-0.559,1.791-1.023,3.801-1.421,6.142c-0.087,0.497-0.153,0.969-0.214,1.449
	c-0.356,2.401-0.523,4.489-0.523,6.475c0,12.741,5.029,24.691,14.161,33.649c0.856,0.843,1.981,1.305,3.173,1.305
	c1.19,0,2.315-0.461,3.166-1.299c9.138-8.964,14.167-20.914,14.167-33.655c0-1.942-0.156-3.985-0.492-6.427
	c-0.071-0.508-0.145-1.021-0.227-1.536c-0.388-2.286-0.853-4.297-1.415-6.112c-0.069-0.174-0.133-0.349-0.187-0.527
	c-0.539-1.662-1.254-3.449-2.166-5.393l-0.138-0.292c-0.167-0.354-0.332-0.705-0.508-1.055c-1.02-1.99-2.056-3.746-3.149-5.337
	c-0.059-0.087-0.108-0.165-0.152-0.238l-2.592-3.356l3.811-2.326c5.741-3.504,12.49-5.357,19.517-5.357
	c10.147,0,19.965,3.923,26.935,10.763c7.373,7.268,11.43,16.923,11.43,27.193v23.175l-74.783,49.854
	c-1.261,0.844-2.017,2.255-2.017,3.771v55.2h-42.133v-55.2c0-1.517-0.756-2.928-2.021-3.775l-74.779-49.84v-23.184
	c0-21.027,17.106-38.134,38.133-38.134c7.002,0,13.835,1.918,19.762,5.547l3.539,2.167L217.351,186.251z M220.746,198.845
	c0.088-0.222,0.214-0.479,0.345-0.733l0.064-0.125c0.327-0.735,0.71-1.398,1.048-1.984c0.14-0.242,0.28-0.483,0.413-0.729
	l3.517-6.492l3.517,6.492c0.133,0.246,0.273,0.487,0.413,0.729c0.338,0.585,0.722,1.249,1.056,2.001l0.06,0.114
	c0.108,0.213,0.216,0.43,0.313,0.655c0.816,1.986,1.447,4.029,1.958,6.316c0.115,0.54,0.21,1.037,0.296,1.543
	c0.444,2.515,0.653,4.653,0.653,6.702c0,2.048-0.209,4.186-0.658,6.728c-0.081,0.479-0.176,0.976-0.281,1.472
	c-0.52,2.337-1.151,4.383-1.94,6.296c-0.095,0.23-0.204,0.457-0.317,0.681l-0.081,0.165c-0.333,0.756-0.729,1.439-1.079,2.042
	c-0.133,0.229-0.266,0.458-0.393,0.689l-3.526,6.446l-3.5-6.46c-0.133-0.246-0.273-0.488-0.414-0.729
	c-0.338-0.585-0.722-1.249-1.056-2c-0.027-0.061-0.065-0.133-0.102-0.207c-0.087-0.174-0.173-0.349-0.251-0.522l-0.051-0.12
	c-0.787-1.917-1.417-3.959-1.927-6.244c-0.114-0.539-0.209-1.031-0.294-1.524c-0.445-2.445-0.664-4.652-0.664-6.712
	s0.209-4.199,0.659-6.732c0.084-0.484,0.18-0.992,0.286-1.48C219.325,202.806,219.957,200.76,220.746,198.845z M280.48,198.845
	c0.086-0.218,0.212-0.477,0.344-0.733l0.064-0.128c0.327-0.734,0.711-1.398,1.05-1.983c0.14-0.242,0.279-0.483,0.412-0.729
	l3.521-6.49l3.514,6.493c0.134,0.246,0.273,0.488,0.414,0.73c0.338,0.585,0.721,1.249,1.055,2l0.06,0.113
	c0.107,0.21,0.215,0.426,0.312,0.648c0.819,1.996,1.45,4.039,1.959,6.324c0.113,0.531,0.209,1.03,0.296,1.537
	c0.444,2.518,0.653,4.656,0.653,6.706c0,2.05-0.209,4.188-0.657,6.728c-0.082,0.481-0.177,0.977-0.282,1.471
	c-0.519,2.337-1.15,4.383-1.938,6.296c-0.097,0.233-0.204,0.455-0.314,0.675l-0.081,0.165c-0.336,0.763-0.731,1.444-1.081,2.046
	c-0.134,0.23-0.268,0.459-0.394,0.691l-3.528,6.45l-3.499-6.466c-0.134-0.247-0.274-0.49-0.415-0.733
	c-0.337-0.583-0.72-1.245-1.053-1.994c-0.031-0.069-0.068-0.142-0.105-0.215c-0.085-0.17-0.169-0.341-0.246-0.511l-0.054-0.125
	c-0.786-1.918-1.416-3.96-1.927-6.244c-0.113-0.537-0.207-1.028-0.293-1.52c-0.445-2.451-0.665-4.658-0.665-6.716
	s0.209-4.197,0.659-6.732c0.082-0.478,0.179-0.987,0.284-1.476C279.059,202.804,279.691,200.758,280.48,198.845z M443.733,345.334
	c-2.5,0-4.533,2.033-4.533,4.533v72.271l-4.498-0.564c-36.05-4.521-63.235-35.348-63.235-71.706c0-2.5-2.033-4.533-4.533-4.533
	h-80.801v-52.775l74.784-49.854c1.261-0.843,2.017-2.254,2.017-3.771v-25.6c0-11.403-4.029-22.174-11.423-30.733l-5.708-5.609
	c-8.462-7.028-18.997-10.858-30.069-10.858c-9.913,0-19.43,3.098-27.52,8.959l-2.347,1.7l-2.347-1.7
	c-8.09-5.861-17.606-8.959-27.521-8.959c-9.914,0-19.43,3.098-27.52,8.959l-2.347,1.7l-2.347-1.7
	c-8.09-5.861-17.606-8.959-27.52-8.959c-26.026,0-47.2,21.174-47.2,47.2v25.608c0,1.517,0.755,2.928,2.021,3.775l74.779,49.841
	v52.775h-157.6c-30.437,0-55.2-24.763-55.2-55.2c0-21.304,12.518-40.92,31.891-49.977c1.164-0.546,2.047-1.57,2.419-2.809
	c0.371-1.234,0.193-2.58-0.487-3.693c-5.377-8.722-8.224-18.705-8.224-28.854c0-30.437,24.763-55.199,55.2-55.199
	c5.849,0,11.689,0.953,17.36,2.831c1.212,0.406,2.531,0.273,3.616-0.333c1.116-0.62,1.922-1.68,2.222-2.915
	c5.988-24.874,28.031-42.25,53.602-42.25c10.155,0,20.14,2.843,28.875,8.223c1.098,0.676,2.436,0.85,3.688,0.477
	c1.23-0.371,2.255-1.256,2.802-2.425c9.042-19.363,28.656-31.875,49.969-31.875c21.311,0,40.928,12.515,49.978,31.883
	c0.548,1.168,1.574,2.056,2.813,2.429c1.225,0.367,2.579,0.193,3.684-0.485c8.712-5.38,18.695-8.228,28.859-8.228
	c25.571,0,47.614,17.376,53.604,42.257c0.298,1.228,1.104,2.288,2.209,2.901c1.105,0.616,2.436,0.743,3.6,0.349
	c5.697-1.887,11.538-2.84,17.388-2.84c30.437,0,55.199,24.762,55.199,55.199c0,10.151-2.847,20.133-8.231,28.869
	c-0.673,1.097-0.849,2.442-0.478,3.682c0.372,1.241,1.251,2.264,2.41,2.802c19.382,9.061,31.899,28.678,31.899,49.981
	C498.934,320.571,474.171,345.334,443.733,345.334z"/>
<rect x="157.6" y="379.467" fill="#DB1721" stroke="#DB1721" stroke-width="2" stroke-miterlimit="10" width="9.066" height="9.066"/>
<rect x="123.467" y="379.467" fill="#DB1721" stroke="#DB1721" stroke-width="2" stroke-miterlimit="10" width="9.066" height="9.066"/>
<rect x="89.333" y="379.467" fill="#DB1721" stroke="#DB1721" stroke-width="2" stroke-miterlimit="10" width="9.066" height="9.066"/>
</svg>
