<?xml version="1.0" encoding="utf-8"?>
<!-- Generator: Adobe Illustrator 15.0.0, SVG Export Plug-In . SVG Version: 6.00 Build 0)  -->
<!DOCTYPE svg PUBLIC "-//W3C//DTD SVG 1.1//EN" "http://www.w3.org/Graphics/SVG/1.1/DTD/svg11.dtd">
<svg version="1.1" id="Capa_1" xmlns="http://www.w3.org/2000/svg" xmlns:xlink="http://www.w3.org/1999/xlink" x="0px" y="0px"
	 width="512px" height="512px" viewBox="0 0 512 512" enable-background="new 0 0 512 512" xml:space="preserve">
<path fill="#DB1721" d="M413.146,242.02c0,3.483,2.834,6.316,6.317,6.316s6.317-2.833,6.317-6.316c0-3.483-2.834-6.317-6.317-6.317
	S413.146,238.537,413.146,242.02z"/>
<path fill="#DB1721" d="M84.049,248.337c3.483,0,6.317-2.833,6.317-6.316c0-3.483-2.834-6.317-6.317-6.317
	c-3.483,0-6.317,2.834-6.317,6.317C77.732,245.503,80.566,248.337,84.049,248.337z"/>
<path fill="#DB1721" d="M112,263.654c-3.483,0-6.317,2.834-6.317,6.317c0,3.482,2.834,6.316,6.317,6.316
	c3.483,0,6.317-2.834,6.317-6.316C118.317,266.488,115.483,263.654,112,263.654z"/>
<path fill="#DB1721" d="M167.903,263.654c-3.483,0-6.317,2.834-6.317,6.317c0,3.482,2.834,6.316,6.317,6.316
	c3.483,0,6.317-2.834,6.317-6.316C174.22,266.488,171.386,263.654,167.903,263.654z"/>
<path fill="#DB1721" d="M146.269,297.922c0-3.482-2.834-6.316-6.317-6.316c-3.483,0-6.317,2.834-6.317,6.316
	c0,3.483,2.834,6.317,6.317,6.317C143.435,304.239,146.269,301.405,146.269,297.922z"/>
<path fill="#DB1721" d="M195.854,304.239c3.483,0,6.317-2.834,6.317-6.317c0-3.482-2.834-6.316-6.317-6.316
	c-3.483,0-6.317,2.834-6.317,6.316C189.537,301.405,192.371,304.239,195.854,304.239z"/>
<path fill="#DB1721" d="M223.805,332.19c3.483,0,6.317-2.834,6.317-6.317c0-3.482-2.834-6.316-6.317-6.316
	c-3.483,0-6.317,2.834-6.317,6.316C217.488,329.356,220.322,332.19,223.805,332.19z"/>
<path fill="#DB1721" d="M279.707,332.19c3.483,0,6.317-2.834,6.317-6.317c0-3.482-2.834-6.316-6.317-6.316
	c-3.482,0-6.316,2.834-6.316,6.316C273.391,329.356,276.225,332.19,279.707,332.19z"/>
<path fill="#DB1721" d="M307.658,304.239c3.483,0,6.317-2.834,6.317-6.317c0-3.482-2.834-6.316-6.317-6.316
	c-3.482,0-6.316,2.834-6.316,6.316C301.342,301.405,304.176,304.239,307.658,304.239z"/>
<path fill="#DB1721" d="M251.756,360.141c3.483,0,6.317-2.834,6.317-6.317c0-3.482-2.834-6.316-6.317-6.316
	c-3.483,0-6.317,2.834-6.317,6.316C245.439,357.307,248.273,360.141,251.756,360.141z"/>
<path fill="#DB1721" d="M335.609,276.288c3.483,0,6.317-2.834,6.317-6.316c0-3.483-2.834-6.317-6.317-6.317
	c-3.482,0-6.316,2.834-6.316,6.317C329.293,273.454,332.127,276.288,335.609,276.288z"/>
<path fill="#DB1721" d="M391.512,276.288c3.483,0,6.317-2.834,6.317-6.316c0-3.483-2.834-6.317-6.317-6.317
	s-6.317,2.834-6.317,6.317C385.194,273.454,388.028,276.288,391.512,276.288z"/>
<path fill="#DB1721" d="M363.561,304.239c3.483,0,6.317-2.834,6.317-6.317c0-3.482-2.834-6.316-6.317-6.316
	s-6.317,2.834-6.317,6.316C357.243,301.405,360.077,304.239,363.561,304.239z"/>
<path fill="#DB1721" d="M335.619,319.547c-3.483,0-6.317,2.834-6.317,6.317c0,3.344,2.658,6.083,6.052,6.236l3.808,0.172
	l1.896-3.455c0.599-1.09,0.878-2.028,0.878-2.953C341.936,322.381,339.102,319.547,335.619,319.547z"/>
<path fill="#DB1721" d="M416.007,306.982l5.654-3.217c0.235-0.087,0.553-0.3,0.92-0.545l0.406-0.263l82.951-47.393l-89.966-51.085
	l89.966-51.402L256.005,11.146L6.061,153.078l89.966,51.402L6.062,255.566l89.965,51.402L6.062,358.052l249.943,142.797
	l249.943-142.797L416.007,306.982z M31.589,153.109L256.005,25.666L480.42,153.109L256.014,281.327L31.589,153.109z M61.878,272.907
	l0.287-2.018c0.045-0.316,0.122-0.621,0.206-0.924c0.011-0.039,0.022-0.078,0.033-0.117c-0.066-3.427-2.874-6.194-6.316-6.194
	c-1.347,0-2.656,0.51-3.892,1.516l-1.595,1.299l-19.023-10.863l73.41-41.69l1.399,2.875c1.079,2.217,3.229,3.595,5.613,3.595
	c1.616,0,3.166-0.637,4.362-1.794l1.619-1.564l22.402,12.796l-0.001-0.003l108.268,61.858l-1.921,2.7
	c-0.867,1.219-1.289,2.378-1.289,3.543c0,3.483,2.834,6.317,6.317,6.317c3.445,0,6.254-2.771,6.316-6.201
	c-0.011-0.042-0.023-0.084-0.035-0.126c-0.077-0.274-0.148-0.552-0.195-0.842l-0.334-2.053l99.395-56.787l0.535,4.497
	c0.386,3.245,2.961,5.601,6.123,5.601c3.483,0,6.317-2.834,6.317-6.317c0-2.563-1.623-4.17-2.591-4.9l-3.632-2.742l25.475-14.554
	l1.132,0.251c0.237,0.053,0.472,0.116,0.705,0.18c0.195,0.053,0.462,0.126,0.552,0.131c2.653,0,5.02-1.769,5.882-4.4l0.359-1.098
	l5.468-3.127l77.193,43.834l-25.911,14.805l-1.359-3.004c-1.028-2.273-3.276-3.743-5.727-3.743c-3.483,0-6.317,2.834-6.317,6.317
	c0,1.163,0.425,2.325,1.299,3.552l1.922,2.7l-108.392,61.933l0.003-0.006l-22.271,12.726l-1.618-1.564
	c-1.203-1.163-2.759-1.804-4.381-1.804c-3.483,0-6.317,2.834-6.317,6.317c0,0.136,0.091,0.46,0.171,0.746
	c0.061,0.218,0.121,0.437,0.175,0.657l0.526,2.19l-46.208,26.396l-53.898-30.793l-0.357-1.104c-0.855-2.637-3.221-4.408-5.889-4.411
	c-0.092,0.007-0.354,0.079-0.545,0.133c-0.244,0.067-0.487,0.134-0.734,0.188l-1.129,0.249l-25.451-14.536l3.613-2.743
	c0.974-0.739,2.606-2.361,2.606-4.916c0-3.482-2.834-6.316-6.317-6.316c-3.117,0-5.749,2.413-6.124,5.612l-0.527,4.507
	L61.878,272.907z M255.995,486.302L31.589,358.084l77.182-43.834l147.233,84.111l147.223-84.111l77.183,43.834L255.995,486.302z"/>
<path fill="#DB1721" d="M139.952,248.337c3.483,0,6.317-2.833,6.317-6.316c0-0.915-0.275-1.849-0.867-2.94l-1.885-3.478
	l-3.852,0.181c-3.381,0.159-6.03,2.899-6.03,6.237C133.634,245.503,136.468,248.337,139.952,248.337z"/>
</svg>
