<?xml version="1.0" encoding="utf-8"?>
<!-- Generator: Adobe Illustrator 15.0.0, SVG Export Plug-In . SVG Version: 6.00 Build 0)  -->
<!DOCTYPE svg PUBLIC "-//W3C//DTD SVG 1.1//EN" "http://www.w3.org/Graphics/SVG/1.1/DTD/svg11.dtd">
<svg version="1.1" id="Layer_1" xmlns="http://www.w3.org/2000/svg" xmlns:xlink="http://www.w3.org/1999/xlink" x="0px" y="0px"
	 width="332.041px" height="290.28px" viewBox="0 0 332.041 290.28" enable-background="new 0 0 332.041 290.28"
	 xml:space="preserve">
<path fill="#DA1F26" d="M331.481,271.675l-13.403-46.598c-0.136-0.371-0.439-0.842-0.738-1.141l-0.59-0.589l-0.26-0.792
	c-8.022-24.374-27.501-42.752-52.124-49.188l-4.049-0.693c-1.018-0.283-2.075-0.427-3.145-0.427c-3.637,0-7.133,1.628-9.592,4.467
	c-15.025,17.072-33.891,18.484-53.524,18.484c-19.635,0-38.502-1.412-53.51-18.463c-2.478-2.86-5.974-4.488-9.61-4.488
	c-1.069,0-2.127,0.144-3.145,0.427l-3.927,0.984c-18.44,4.834-34.298,16.458-44.614,32.718l-1.031,1.625H35.974
	c-1.469,0-2.308-0.538-3.115-1.346l-1.025-1.024v-0.912c-0.156-0.437-0.32-1.049-0.32-1.821v-0.48l8.481-30.327
	c7.758-24.628,22.766-32.45,51.432-39.781c0.685-0.171,1.093-0.503,1.276-0.686l2.29-2.281l2.456,2.101
	c1.878,1.607,4.115,3.061,6.646,4.321l0.392,0.228c0.128,0.048,0.609,0.048,0.928,0.048c1.032,0,2.046-0.637,2.668-1.668
	c0.675-1.457,0.092-3.139-1.355-3.863c-15.792-8.239-27.215-31.345-27.215-54.97c0-21.869,17.792-39.66,39.66-39.66
	c3.743,0,7.494,0.548,11.804,1.725l3.809,1.04l-1.489,3.657c-3.439,8.443-5.183,17.366-5.183,26.52c0,52.742,31.369,97.3,68.5,97.3
	c17.18,0,34.572-10.491,47.718-28.783c13.411-18.663,21.103-43.636,21.103-68.517c0-37.948-30.873-68.82-68.82-68.82
	c-23.361,0-44.871,11.723-57.539,31.358l-1.499,2.324l-2.607-0.921c-5.042-1.78-10.356-2.683-15.795-2.683
	c-15.343,0-30.024,8.202-38.314,21.404l-2.336,3.721l-3.104-3.109c-0.228-0.228-0.474-0.356-1.01-0.624
	c-4.114-2.192-8.245-3.15-13.475-3.15l-0.586-0.005c-15.568,0-28.233,12.788-28.233,28.505c0,9.001,2.444,18.148,6.882,25.756
	l2.325,3.985l-4.464,1.165c-15.521,4.049-26.196,9.933-31.443,26.723l-5.105,18.502c-0.653,2.178-0.25,4.544,1.029,6.251
	l0.112,0.159c1.182,1.773,3.554,2.919,6.044,2.919h29.129l-1.093,4.353c-0.209,0.832-0.501,1.61-0.759,2.297
	c-0.211,0.563-0.411,1.095-0.523,1.543l-8.365,30.256c-0.934,3.031-0.233,6.28,1.922,8.913l0.123,0.16c1.901,2.616,4.684,4,8.046,4
	h39.235l-2.098,4.882c-0.87,2.023-1.46,4.089-2.086,6.276l-13.419,46.979c-1.064,4.609-0.133,9.211,2.561,12.635
	c2.848,3.628,6.976,5.707,11.327,5.707h246.082c4.472,0,8.774-2.137,11.229-5.576l0.098-0.131
	C331.839,280.84,332.754,276.259,331.481,271.675z M259.266,62.483c0.368,2.208,0.368,4.058,0.368,6.017
	c0,48.913-29.448,91.819-63.02,91.819c-32.195,0-60.32-38.67-62.695-86.203l-0.223-4.453l4.378,0.841
	c7.518,1.443,15.478,2.175,23.66,2.175c24.876,0,44.836-7.87,54.762-21.59l2.257-3.12l2.891,2.544
	c7.44,6.546,16.489,10.006,26.169,10.006c2.371,0,4.977-0.312,7.149-0.856l3.68-0.921L259.266,62.483z M140.65,40.443l0.261-0.551
	l0.431-0.43c0.235-0.234,0.236-0.236,0.301-0.365l0.221-0.442c0.12-0.334,0.307-0.778,0.634-1.231
	c10.924-19.515,31.632-31.623,54.117-31.623c27.445,0,51.547,17.694,59.974,44.03l1.194,3.73l-3.84,0.769
	c-2.109,0.422-4.274,0.636-6.435,0.636c-10.648,0.001-20.801-5.172-27.157-13.838c-0.955-1.226-2.695-1.591-3.984-0.586
	c-0.776,0.582-0.896,0.885-0.997,1.287l-0.235,0.94l-0.449,0.45c-0.097,0.18-0.223,0.397-0.393,0.631
	c-7.39,14.531-26.947,23.193-52.438,23.193c-7.893,0-16.127-0.831-24.473-2.468l-3.26-0.64l0.469-3.289
	C135.594,53.612,137.632,46.814,140.65,40.443z M5.441,156.479l5.726-20.444c4.262-14.565,13.153-19.108,30.243-23.223
	c0.417-0.14,0.943-0.323,1.107-0.439l2.215-2.216l2.389,2.008c1.398,1.119,2.517,1.975,4.18,2.806l0.375,0.217
	c0.13,0.05,0.617,0.05,0.939,0.05c1.032,0,2.048-0.637,2.671-1.668c0.724-1.564-0.009-3.285-1.174-3.933
	c-9.519-5.121-16.197-18.625-16.197-32.816c0-12.908,10.111-23.02,23.019-23.02c4.133,0,7.448,0.78,10.699,2.524
	c0.112,0.04,0.221,0.079,0.328,0.117c0.521,0.187,0.681,0.238,0.813,0.238h4.856l-1.536,4.607
	c-1.578,4.733-2.378,9.528-2.378,14.252c0,16.95,5.59,34.335,14.953,46.506l3.257,4.234l-5.183,1.295
	c-20.478,5.119-35.191,11.468-45.255,27.283l-1.031,1.621H5.441z M324.539,281.156l-0.332,0.382c-0.81,0.807-2.95,2.941-6.631,2.941
	H71.494c-3.683,0-5.824-2.136-6.63-2.94l-0.333-0.383c-1.528-2.043-2.151-5.028-1.549-7.43l0.031-0.117l13.437-46.719
	c6.76-23.309,25.495-41.522,48.895-47.543l3.774-0.941c0.473-0.139,0.976-0.209,1.497-0.209c1.846,0,3.977,0.935,5.43,2.382
	l0.167,0.178c16.576,18.989,36.82,20.562,57.844,20.562c21.022,0,41.265-1.572,57.844-20.562l0.162-0.173
	c1.941-1.942,4.443-2.747,6.997-2.237l0.164,0.037l3.84,0.957c23.46,6.125,42.188,24.338,48.913,47.542l5.743,19.774
	c0.2,0.599,0.291,0.689,0.406,0.804l0.64,0.638l7.359,25.475C326.658,276.23,326.05,279.136,324.539,281.156z"/>
</svg>
