<?xml version="1.0" encoding="utf-8"?>
<!-- Generator: Adobe Illustrator 22.1.0, SVG Export Plug-In . SVG Version: 6.00 Build 0)  -->
<svg version="1.1" id="Capa_1" xmlns="http://www.w3.org/2000/svg" xmlns:xlink="http://www.w3.org/1999/xlink" x="0px" y="0px"
	 viewBox="0 0 500 500" style="enable-background:new 0 0 500 500;" xml:space="preserve">
<style type="text/css">
	.st0{fill:#DB1721;}
</style>
<g>
	<path class="st0" d="M496,0H4C1.8,0,0,1.8,0,4v374.1c0,2.2,1.8,4,4,4h27.7l-4.2,8.6c-4.9,9.9-7.5,21-7.5,32.1V451
		c0,0.1,0,0.3,0,0.5l0.4,3.2l-2.4,2.1C6.6,466.6,0,480.9,0,496c0,2.2,1.8,4,4,4h347.3c2.2,0,4-1.8,4-4v-40.1c0-2.2-1.8-4-4-4h-49.7
		v-29.1c0-11.1-2.6-22.2-7.5-32.1l-4.3-8.6h206c2.2,0,4-1.8,4-4V4C500,1.8,498.2,0,496,0z M8,374.1V308h52.7l-1,6.9
		c-2,13.3-3,26.6-3,39.7v4.9l-2.8,1.8c-4.9,3.1-9.5,6.8-13.5,10.9l-1.8,1.8L8,374.1z M28,422.8c0-17.1,6.6-33.2,18.5-45.3L56.7,367
		v76.8l-5.9,0.1c-5.1,0.1-10.2,1-15,2.6l-7.9,2.6v-26.3H28z M224.9,492H7.5l2.1-7.6C14.8,465.3,32.2,452,52,452
		c6.2,0,12.2,1.3,17.8,3.8c1,0.5,2.2,0.5,3.2,0s1.8-1.3,2.2-2.4c13.1-40.1,50.3-67,92.5-67c37.5,0,71,20.9,87.5,54.6
		c0.1,0.2,0.3,0.5,0.4,0.7l1.2,1.6v10.3l-3.8,1.5c-14,5.5-24.2,17.5-27.2,32.2L224.9,492z M492,253.8V300H259.3l-1.1-4.7
		c-2.5-11.2-5.8-22.5-9.8-33.5l-2.9-8.1H492V253.8z M263.6,245.8v-76.5l42-42v118.5H263.6z M313.6,245.8V112.2l42,42v91.6
		L313.6,245.8L313.6,245.8z M363.6,245.8v-95.5l42-42v137.5H363.6z M255.6,245.8H242l-1.8-4c-0.7-1.5-1.4-3-2.1-4.4
		c-3.7-7.8-8-15.7-12.8-23.4l-2.5-4l32.7-32.7v68.5H255.6z M256.9,354.6v70.7l-10.5-11.8c-6.5-7.3-13.9-13.6-22.1-18.8
		c-16.9-10.7-36.4-16.4-56.5-16.4c-38,0-73.2,20.5-91.8,53.6l-11.2,20v-97.3c0-77.1,33.6-149.9,92.2-199.8l3.9-3.3l3.9,3.3
		C223.3,204.7,256.9,277.6,256.9,354.6z M347.3,459.9V492h-34.1l-1-4.8c-1.3-6.4-4-12.4-8-17.6L297,460h50.3V459.9z M303.1,484
		l2.8,8h-73.7l2.8-8c5.1-14.4,18.8-24.1,34-24.1C284.3,459.9,298,469.6,303.1,484z M293.7,422.8v29.1h-28.8V367l10.3,10.5
		c0.8,0.9,1.7,1.8,2.7,2.9l0.2,0.3C288.1,392.4,293.7,407.3,293.7,422.8z M492,374.1H283l-1.8-1.8c-4-4.2-8.6-7.8-13.5-10.9
		l-2.8-1.8v-4.9c0-13.1-1-26.5-3-39.8l-1-6.9H492V374.1z M492,245.8h-28.4v-78.3c0-2.2-1.8-4-4-4s-4,1.8-4,4v78.3h-42V105.2
		c0-0.3,0-0.6-0.1-0.9l-0.7-3.2l42.8-42.8v26.4c0,2.2,1.8,4,4,4s4-1.8,4-4V48.6c0-2.2-1.8-4-4-4h-36.1c-2.2,0-4,1.8-4,4s1.8,4,4,4
		H450l-92.3,92.3L320,107.3c-1.6-1.6-4.1-1.6-5.7,0l-95.8,95.8l-4.1-5.8c-14.6-20.4-31.8-38.6-51.1-54c-1.5-1.2-3.5-1.2-5,0
		c-31.5,25.2-57.4,57.7-74.8,94.1c-8.8,18.3-15.6,37.8-20.1,57.9l-1.1,4.7H8V8h484V245.8z"/>
	<path class="st0" d="M160.8,245.8c-28.7,0-52,23.3-52,52s23.3,52,52,52s52-23.3,52-52S189.5,245.8,160.8,245.8z M160.8,341.8
		c-24.3,0-44-19.7-44-44s19.7-44,44-44s44,19.7,44,44C204.8,322,185.1,341.8,160.8,341.8z"/>
	<path class="st0" d="M44.8,98.5h92c2.2,0,4-1.8,4-4s-1.8-4-4-4h-92c-2.2,0-4,1.8-4,4S42.6,98.5,44.8,98.5z"/>
	<path class="st0" d="M89,131.7c-0.7,0.7-1.2,1.8-1.2,2.8s0.4,2.1,1.2,2.8c0.7,0.7,1.8,1.2,2.8,1.2s2.1-0.4,2.8-1.2
		c0.7-0.7,1.2-1.8,1.2-2.8s-0.4-2.1-1.2-2.8c-0.7-0.7-1.8-1.2-2.8-1.2S89.7,130.9,89,131.7z"/>
	<path class="st0" d="M44.8,138.5h33.6c2.2,0,4-1.8,4-4s-1.8-4-4-4H44.8c-2.2,0-4,1.8-4,4S42.6,138.5,44.8,138.5z"/>
	<path class="st0" d="M44.8,58.5h55.3c2.2,0,4-1.8,4-4s-1.8-4-4-4H44.8c-2.2,0-4,1.8-4,4S42.6,58.5,44.8,58.5z"/>
</g>
</svg>
